<?xml version="1.0" encoding="UTF-8" standalone="no"?><svg xmlns="http://www.w3.org/2000/svg" xmlns:xlink="http://www.w3.org/1999/xlink" contentScriptType="application/ecmascript" contentStyleType="text/css" height="1337px" preserveAspectRatio="none" style="width:1043px;height:1337px;" version="1.1" viewBox="0 0 1043 1337" width="1043px" zoomAndPan="magnify"><defs><filter height="300%" id="f1g9cgc4bdwb92" width="300%" x="-1" y="-1"><feGaussianBlur result="blurOut" stdDeviation="2.0"/><feColorMatrix in="blurOut" result="blurOut2" type="matrix" values="0 0 0 0 0 0 0 0 0 0 0 0 0 0 0 0 0 0 .4 0"/><feOffset dx="4.0" dy="4.0" in="blurOut2" result="blurOut3"/><feBlend in="SourceGraphic" in2="blurOut3" mode="normal"/></filter></defs><g><text fill="#000000" font-family="sans-serif" font-size="18" lengthAdjust="spacing" textLength="101" x="468.75" y="28.708">Job lifetime</text><rect fill="#F0FFFF" height="1290.0469" style="stroke:#A80036;stroke-width:1.0;" width="481" x="170" y="40.9531"/><text fill="#000000" font-family="sans-serif" font-size="13" font-weight="bold" lengthAdjust="spacing" textLength="47" x="387" y="53.02">Server</text><rect fill="#EFEFFF" height="1290.0469" style="stroke:#A80036;stroke-width:1.0;" width="256.5" x="781" y="40.9531"/><text fill="#000000" font-family="sans-serif" font-size="13" font-weight="bold" lengthAdjust="spacing" textLength="47" x="885.75" y="53.02">Nodes</text><rect fill="#FFFFFF" filter="url(#f1g9cgc4bdwb92)" height="772.6563" style="stroke:#FFFFFF;stroke-width:1.0;" width="10" x="19" y="133.25"/><line style="stroke:#A80036;stroke-width:1.0;" x1="19" x2="19" y1="133.25" y2="905.9063"/><line style="stroke:#A80036;stroke-width:1.0;" x1="29" x2="29" y1="133.25" y2="905.9063"/><line style="stroke:#A80036;stroke-width:1.0;" x1="19" x2="29" y1="133.25" y2="133.25"/><rect fill="#FFFFFF" filter="url(#f1g9cgc4bdwb92)" height="287.7969" style="stroke:#FFFFFF;stroke-width:1.0;" width="10" x="19" y="933.9063"/><line style="stroke:#A80036;stroke-width:1.0;" x1="19" x2="19" y1="933.9063" y2="1221.7031"/><line style="stroke:#A80036;stroke-width:1.0;" x1="29" x2="29" y1="933.9063" y2="1221.7031"/><line style="stroke:#A80036;stroke-width:1.0;" x1="19" x2="29" y1="1221.7031" y2="1221.7031"/><rect fill="#FFFFFF" filter="url(#f1g9cgc4bdwb92)" height="105.3984" style="stroke:#A80036;stroke-width:1.0;" width="10" x="24" y="162.3828"/><rect fill="#FFFFFF" filter="url(#f1g9cgc4bdwb92)" height="772.6563" style="stroke:#FFFFFF;stroke-width:1.0;" width="10" x="210" y="133.25"/><line style="stroke:#A80036;stroke-width:1.0;" x1="210" x2="210" y1="133.25" y2="905.9063"/><line style="stroke:#A80036;stroke-width:1.0;" x1="220" x2="220" y1="133.25" y2="905.9063"/><line style="stroke:#A80036;stroke-width:1.0;" x1="210" x2="220" y1="133.25" y2="133.25"/><rect fill="#FFFFFF" filter="url(#f1g9cgc4bdwb92)" height="301.7969" style="stroke:#FFFFFF;stroke-width:1.0;" width="10" x="210" y="933.9063"/><line style="stroke:#A80036;stroke-width:1.0;" x1="210" x2="210" y1="933.9063" y2="1235.7031"/><line style="stroke:#A80036;stroke-width:1.0;" x1="220" x2="220" y1="933.9063" y2="1235.7031"/><rect fill="#FFFFFF" filter="url(#f1g9cgc4bdwb92)" height="772.6563" style="stroke:#FFFFFF;stroke-width:1.0;" width="10" x="297" y="133.25"/><line style="stroke:#A80036;stroke-width:1.0;" x1="297" x2="297" y1="133.25" y2="905.9063"/><line style="stroke:#A80036;stroke-width:1.0;" x1="307" x2="307" y1="133.25" y2="905.9063"/><line style="stroke:#A80036;stroke-width:1.0;" x1="297" x2="307" y1="133.25" y2="133.25"/><rect fill="#FFFFFF" filter="url(#f1g9cgc4bdwb92)" height="301.7969" style="stroke:#FFFFFF;stroke-width:1.0;" width="10" x="297" y="933.9063"/><line style="stroke:#A80036;stroke-width:1.0;" x1="297" x2="297" y1="933.9063" y2="1235.7031"/><line style="stroke:#A80036;stroke-width:1.0;" x1="307" x2="307" y1="933.9063" y2="1235.7031"/><rect fill="#FFFFFF" filter="url(#f1g9cgc4bdwb92)" height="207.7969" style="stroke:#A80036;stroke-width:1.0;" width="10" x="479" y="296.9141"/><rect fill="#FFFFFF" filter="url(#f1g9cgc4bdwb92)" height="170.3984" style="stroke:#A80036;stroke-width:1.0;" width="10" x="603" y="554.9766"/><rect fill="#AFEEEE" filter="url(#f1g9cgc4bdwb92)" height="28" style="stroke:#A80036;stroke-width:1.0;" width="10" x="608" y="661.2422"/><rect fill="#FFFFFF" filter="url(#f1g9cgc4bdwb92)" height="136.2656" style="stroke:#A80036;stroke-width:1.0;" width="10" x="603" y="1085.4375"/><rect fill="#AFEEEE" filter="url(#f1g9cgc4bdwb92)" height="28" style="stroke:#A80036;stroke-width:1.0;" width="10" x="608" y="1122.5703"/><rect fill="#FFFFFF" filter="url(#f1g9cgc4bdwb92)" height="30" style="stroke:#A80036;stroke-width:1.0;" width="10" x="827" y="589.1094"/><rect fill="#FF8C00" filter="url(#f1g9cgc4bdwb92)" height="180.5313" style="stroke:#FF8C00;stroke-width:1.0;" width="10" x="827" y="725.375"/><line style="stroke:#A80036;stroke-width:1.0;" x1="827" x2="827" y1="725.375" y2="905.9063"/><line style="stroke:#A80036;stroke-width:1.0;" x1="837" x2="837" y1="725.375" y2="905.9063"/><line style="stroke:#A80036;stroke-width:1.0;" x1="827" x2="837" y1="725.375" y2="725.375"/><rect fill="#FF8C00" filter="url(#f1g9cgc4bdwb92)" height="122.3984" style="stroke:#FF8C00;stroke-width:1.0;" width="10" x="827" y="933.9063"/><line style="stroke:#A80036;stroke-width:1.0;" x1="827" x2="827" y1="933.9063" y2="1056.3047"/><line style="stroke:#A80036;stroke-width:1.0;" x1="837" x2="837" y1="933.9063" y2="1056.3047"/><line style="stroke:#A80036;stroke-width:1.0;" x1="827" x2="837" y1="1056.3047" y2="1056.3047"/><rect fill="#FFFFFF" filter="url(#f1g9cgc4bdwb92)" height="28" style="stroke:#A80036;stroke-width:1.0;" width="10" x="832" y="762.5078"/><rect fill="#6495ED" filter="url(#f1g9cgc4bdwb92)" height="71.2656" style="stroke:#6495ED;stroke-width:1.0;" width="10" x="832" y="834.6406"/><line style="stroke:#A80036;stroke-width:1.0;" x1="832" x2="832" y1="834.6406" y2="905.9063"/><line style="stroke:#A80036;stroke-width:1.0;" x1="842" x2="842" y1="834.6406" y2="905.9063"/><line style="stroke:#A80036;stroke-width:1.0;" x1="832" x2="842" y1="834.6406" y2="834.6406"/><rect fill="#6495ED" filter="url(#f1g9cgc4bdwb92)" height="21.1328" style="stroke:#6495ED;stroke-width:1.0;" width="10" x="832" y="933.9063"/><line style="stroke:#A80036;stroke-width:1.0;" x1="832" x2="832" y1="933.9063" y2="955.0391"/><line style="stroke:#A80036;stroke-width:1.0;" x1="842" x2="842" y1="933.9063" y2="955.0391"/><line style="stroke:#A80036;stroke-width:1.0;" x1="832" x2="842" y1="955.0391" y2="955.0391"/><rect fill="#FFFFFF" filter="url(#f1g9cgc4bdwb92)" height="28" style="stroke:#A80036;stroke-width:1.0;" width="10" x="832" y="992.1719"/><rect fill="#FFFFFF" filter="url(#f1g9cgc4bdwb92)" height="30" style="stroke:#A80036;stroke-width:1.0;" width="10" x="827" y="1191.7031"/><rect fill="#FFFFFF" filter="url(#f1g9cgc4bdwb92)" height="30" style="stroke:#A80036;stroke-width:1.0;" width="10" x="995" y="589.1094"/><rect fill="#6495ED" filter="url(#f1g9cgc4bdwb92)" height="37.1328" style="stroke:#6495ED;stroke-width:1.0;" width="10" x="995" y="868.7734"/><line style="stroke:#A80036;stroke-width:1.0;" x1="995" x2="995" y1="868.7734" y2="905.9063"/><line style="stroke:#A80036;stroke-width:1.0;" x1="1005" x2="1005" y1="868.7734" y2="905.9063"/><line style="stroke:#A80036;stroke-width:1.0;" x1="995" x2="1005" y1="868.7734" y2="868.7734"/><rect fill="#6495ED" filter="url(#f1g9cgc4bdwb92)" height="21.1328" style="stroke:#6495ED;stroke-width:1.0;" width="10" x="995" y="933.9063"/><line style="stroke:#A80036;stroke-width:1.0;" x1="995" x2="995" y1="933.9063" y2="955.0391"/><line style="stroke:#A80036;stroke-width:1.0;" x1="1005" x2="1005" y1="933.9063" y2="955.0391"/><line style="stroke:#A80036;stroke-width:1.0;" x1="995" x2="1005" y1="955.0391" y2="955.0391"/><rect fill="#FFFFFF" filter="url(#f1g9cgc4bdwb92)" height="30" style="stroke:#A80036;stroke-width:1.0;" width="10" x="995" y="1191.7031"/><rect fill="#FFFFFF" filter="url(#f1g9cgc4bdwb92)" height="85.3984" style="stroke:#000000;stroke-width:2.0;" width="444" x="164" y="412.3125"/><line style="stroke:#A80036;stroke-width:1.0;" x1="24" x2="24" y1="123.25" y2="905.9063"/><line style="stroke:#A80036;stroke-width:1.0;stroke-dasharray:1.0,4.0;" x1="24" x2="24" y1="905.9063" y2="933.9063"/><line style="stroke:#A80036;stroke-width:1.0;" x1="24" x2="24" y1="933.9063" y2="1244.7031"/><line style="stroke:#A80036;stroke-width:1.0;" x1="215" x2="215" y1="123.25" y2="905.9063"/><line style="stroke:#A80036;stroke-width:1.0;stroke-dasharray:1.0,4.0;" x1="215" x2="215" y1="905.9063" y2="933.9063"/><line style="stroke:#A80036;stroke-width:1.0;" x1="215" x2="215" y1="933.9063" y2="1244.7031"/><line style="stroke:#A80036;stroke-width:1.0;" x1="302" x2="302" y1="123.25" y2="905.9063"/><line style="stroke:#A80036;stroke-width:1.0;stroke-dasharray:1.0,4.0;" x1="302" x2="302" y1="905.9063" y2="933.9063"/><line style="stroke:#A80036;stroke-width:1.0;" x1="302" x2="302" y1="933.9063" y2="1244.7031"/><line style="stroke:#A80036;stroke-width:1.0;" x1="484" x2="484" y1="123.25" y2="905.9063"/><line style="stroke:#A80036;stroke-width:1.0;stroke-dasharray:1.0,4.0;" x1="484" x2="484" y1="905.9063" y2="933.9063"/><line style="stroke:#A80036;stroke-width:1.0;" x1="484" x2="484" y1="933.9063" y2="1244.7031"/><line style="stroke:#A80036;stroke-width:1.0;" x1="608" x2="608" y1="123.25" y2="905.9063"/><line style="stroke:#A80036;stroke-width:1.0;stroke-dasharray:1.0,4.0;" x1="608" x2="608" y1="905.9063" y2="933.9063"/><line style="stroke:#A80036;stroke-width:1.0;" x1="608" x2="608" y1="933.9063" y2="1244.7031"/><line style="stroke:#A80036;stroke-width:1.0;" x1="832" x2="832" y1="123.25" y2="905.9063"/><line style="stroke:#A80036;stroke-width:1.0;stroke-dasharray:1.0,4.0;" x1="832" x2="832" y1="905.9063" y2="933.9063"/><line style="stroke:#A80036;stroke-width:1.0;" x1="832" x2="832" y1="933.9063" y2="1244.7031"/><line style="stroke:#A80036;stroke-width:1.0;" x1="999.5" x2="999.5" y1="123.25" y2="905.9063"/><line style="stroke:#A80036;stroke-width:1.0;stroke-dasharray:1.0,4.0;" x1="999.5" x2="999.5" y1="905.9063" y2="933.9063"/><line style="stroke:#A80036;stroke-width:1.0;" x1="999.5" x2="999.5" y1="933.9063" y2="1244.7031"/><text fill="#000000" font-family="sans-serif" font-size="14" lengthAdjust="spacing" textLength="32" x="5" y="119.9482">User</text><ellipse cx="24" cy="49.9531" fill="#FEFECE" filter="url(#f1g9cgc4bdwb92)" rx="8" ry="8" style="stroke:#A80036;stroke-width:2.0;"/><path d="M24,57.9531 L24,84.9531 M11,65.9531 L37,65.9531 M24,84.9531 L11,99.9531 M24,84.9531 L37,99.9531 " fill="none" filter="url(#f1g9cgc4bdwb92)" style="stroke:#A80036;stroke-width:2.0;"/><text fill="#000000" font-family="sans-serif" font-size="14" lengthAdjust="spacing" textLength="32" x="5" y="1256.6982">User</text><ellipse cx="24" cy="1270" fill="#FEFECE" filter="url(#f1g9cgc4bdwb92)" rx="8" ry="8" style="stroke:#A80036;stroke-width:2.0;"/><path d="M24,1278 L24,1305 M11,1286 L37,1286 M24,1305 L11,1320 M24,1305 L37,1320 " fill="none" filter="url(#f1g9cgc4bdwb92)" style="stroke:#A80036;stroke-width:2.0;"/><text fill="#000000" font-family="sans-serif" font-size="14" lengthAdjust="spacing" textLength="76" x="174" y="119.9482">Automaton</text><ellipse cx="215" cy="90.9531" fill="#FEFECE" filter="url(#f1g9cgc4bdwb92)" rx="12" ry="12" style="stroke:#A80036;stroke-width:2.0;"/><polygon fill="#A80036" points="211,78.9531,217,73.9531,215,78.9531,217,83.9531,211,78.9531" style="stroke:#A80036;stroke-width:1.0;"/><text fill="#000000" font-family="sans-serif" font-size="14" lengthAdjust="spacing" textLength="76" x="174" y="1256.6982">Automaton</text><ellipse cx="215" cy="1276" fill="#FEFECE" filter="url(#f1g9cgc4bdwb92)" rx="12" ry="12" style="stroke:#A80036;stroke-width:2.0;"/><polygon fill="#A80036" points="211,1264,217,1259,215,1264,217,1269,211,1264" style="stroke:#A80036;stroke-width:1.0;"/><text fill="#000000" font-family="sans-serif" font-size="14" lengthAdjust="spacing" textLength="66" x="266" y="119.9482">Database</text><path d="M284,70.9531 C284,60.9531 302,60.9531 302,60.9531 C302,60.9531 320,60.9531 320,70.9531 L320,96.9531 C320,106.9531 302,106.9531 302,106.9531 C302,106.9531 284,106.9531 284,96.9531 L284,70.9531 " fill="#FEFECE" filter="url(#f1g9cgc4bdwb92)" style="stroke:#000000;stroke-width:1.5;"/><path d="M284,70.9531 C284,80.9531 302,80.9531 302,80.9531 C302,80.9531 320,80.9531 320,70.9531 " fill="none" style="stroke:#000000;stroke-width:1.5;"/><text fill="#000000" font-family="sans-serif" font-size="14" lengthAdjust="spacing" textLength="66" x="266" y="1256.6982">Database</text><path d="M284,1270 C284,1260 302,1260 302,1260 C302,1260 320,1260 320,1270 L320,1296 C320,1306 302,1306 302,1306 C302,1306 284,1306 284,1296 L284,1270 " fill="#FEFECE" filter="url(#f1g9cgc4bdwb92)" style="stroke:#000000;stroke-width:1.5;"/><path d="M284,1270 C284,1280 302,1280 302,1280 C302,1280 320,1280 320,1270 " fill="none" style="stroke:#000000;stroke-width:1.5;"/><text fill="#000000" font-family="sans-serif" font-size="14" lengthAdjust="spacing" textLength="70" x="446" y="119.9482">Scheduler</text><ellipse cx="484" cy="90.9531" fill="#FEFECE" filter="url(#f1g9cgc4bdwb92)" rx="12" ry="12" style="stroke:#A80036;stroke-width:2.0;"/><polygon fill="#A80036" points="480,78.9531,486,73.9531,484,78.9531,486,83.9531,480,78.9531" style="stroke:#A80036;stroke-width:1.0;"/><text fill="#000000" font-family="sans-serif" font-size="14" lengthAdjust="spacing" textLength="70" x="446" y="1256.6982">Scheduler</text><ellipse cx="484" cy="1276" fill="#FEFECE" filter="url(#f1g9cgc4bdwb92)" rx="12" ry="12" style="stroke:#A80036;stroke-width:2.0;"/><polygon fill="#A80036" points="480,1264,486,1259,484,1264,486,1269,480,1264" style="stroke:#A80036;stroke-width:1.0;"/><text fill="#000000" font-family="sans-serif" font-size="14" lengthAdjust="spacing" textLength="72" x="569" y="119.9482">Launchers</text><ellipse cx="608" cy="90.9531" fill="#FEFECE" filter="url(#f1g9cgc4bdwb92)" rx="12" ry="12" style="stroke:#A80036;stroke-width:2.0;"/><polygon fill="#A80036" points="604,78.9531,610,73.9531,608,78.9531,610,83.9531,604,78.9531" style="stroke:#A80036;stroke-width:1.0;"/><text fill="#000000" font-family="sans-serif" font-size="14" lengthAdjust="spacing" textLength="72" x="569" y="1256.6982">Launchers</text><ellipse cx="608" cy="1276" fill="#FEFECE" filter="url(#f1g9cgc4bdwb92)" rx="12" ry="12" style="stroke:#A80036;stroke-width:2.0;"/><polygon fill="#A80036" points="604,1264,610,1259,608,1264,610,1269,604,1264" style="stroke:#A80036;stroke-width:1.0;"/><rect fill="#FEFECE" filter="url(#f1g9cgc4bdwb92)" height="30.2969" style="stroke:#A80036;stroke-width:1.5;" width="90" x="785" y="87.9531"/><text fill="#000000" font-family="sans-serif" font-size="14" lengthAdjust="spacing" textLength="76" x="792" y="107.9482">Head node</text><rect fill="#FEFECE" filter="url(#f1g9cgc4bdwb92)" height="30.2969" style="stroke:#A80036;stroke-width:1.5;" width="90" x="785" y="1243.7031"/><text fill="#000000" font-family="sans-serif" font-size="14" lengthAdjust="spacing" textLength="76" x="792" y="1263.6982">Head node</text><rect fill="#FEFECE" filter="url(#f1g9cgc4bdwb92)" height="30.2969" style="stroke:#A80036;stroke-width:1.5;" width="59" x="970.5" y="83.9531"/><rect fill="#FEFECE" filter="url(#f1g9cgc4bdwb92)" height="30.2969" style="stroke:#A80036;stroke-width:1.5;" width="59" x="966.5" y="87.9531"/><text fill="#000000" font-family="sans-serif" font-size="14" lengthAdjust="spacing" textLength="45" x="973.5" y="107.9482">Nodes</text><rect fill="#FEFECE" filter="url(#f1g9cgc4bdwb92)" height="30.2969" style="stroke:#A80036;stroke-width:1.5;" width="59" x="970.5" y="1243.7031"/><rect fill="#FEFECE" filter="url(#f1g9cgc4bdwb92)" height="30.2969" style="stroke:#A80036;stroke-width:1.5;" width="59" x="966.5" y="1247.7031"/><text fill="#000000" font-family="sans-serif" font-size="14" lengthAdjust="spacing" textLength="45" x="973.5" y="1267.6982">Nodes</text><rect fill="#FFFFFF" filter="url(#f1g9cgc4bdwb92)" height="772.6563" style="stroke:#FFFFFF;stroke-width:1.0;" width="10" x="19" y="133.25"/><line style="stroke:#A80036;stroke-width:1.0;" x1="19" x2="19" y1="133.25" y2="905.9063"/><line style="stroke:#A80036;stroke-width:1.0;" x1="29" x2="29" y1="133.25" y2="905.9063"/><line style="stroke:#A80036;stroke-width:1.0;" x1="19" x2="29" y1="133.25" y2="133.25"/><rect fill="#FFFFFF" filter="url(#f1g9cgc4bdwb92)" height="287.7969" style="stroke:#FFFFFF;stroke-width:1.0;" width="10" x="19" y="933.9063"/><line style="stroke:#A80036;stroke-width:1.0;" x1="19" x2="19" y1="933.9063" y2="1221.7031"/><line style="stroke:#A80036;stroke-width:1.0;" x1="29" x2="29" y1="933.9063" y2="1221.7031"/><line style="stroke:#A80036;stroke-width:1.0;" x1="19" x2="29" y1="1221.7031" y2="1221.7031"/><rect fill="#FFFFFF" filter="url(#f1g9cgc4bdwb92)" height="105.3984" style="stroke:#A80036;stroke-width:1.0;" width="10" x="24" y="162.3828"/><rect fill="#FFFFFF" filter="url(#f1g9cgc4bdwb92)" height="772.6563" style="stroke:#FFFFFF;stroke-width:1.0;" width="10" x="210" y="133.25"/><line style="stroke:#A80036;stroke-width:1.0;" x1="210" x2="210" y1="133.25" y2="905.9063"/><line style="stroke:#A80036;stroke-width:1.0;" x1="220" x2="220" y1="133.25" y2="905.9063"/><line style="stroke:#A80036;stroke-width:1.0;" x1="210" x2="220" y1="133.25" y2="133.25"/><rect fill="#FFFFFF" filter="url(#f1g9cgc4bdwb92)" height="301.7969" style="stroke:#FFFFFF;stroke-width:1.0;" width="10" x="210" y="933.9063"/><line style="stroke:#A80036;stroke-width:1.0;" x1="210" x2="210" y1="933.9063" y2="1235.7031"/><line style="stroke:#A80036;stroke-width:1.0;" x1="220" x2="220" y1="933.9063" y2="1235.7031"/><rect fill="#FFFFFF" filter="url(#f1g9cgc4bdwb92)" height="772.6563" style="stroke:#FFFFFF;stroke-width:1.0;" width="10" x="297" y="133.25"/><line style="stroke:#A80036;stroke-width:1.0;" x1="297" x2="297" y1="133.25" y2="905.9063"/><line style="stroke:#A80036;stroke-width:1.0;" x1="307" x2="307" y1="133.25" y2="905.9063"/><line style="stroke:#A80036;stroke-width:1.0;" x1="297" x2="307" y1="133.25" y2="133.25"/><rect fill="#FFFFFF" filter="url(#f1g9cgc4bdwb92)" height="301.7969" style="stroke:#FFFFFF;stroke-width:1.0;" width="10" x="297" y="933.9063"/><line style="stroke:#A80036;stroke-width:1.0;" x1="297" x2="297" y1="933.9063" y2="1235.7031"/><line style="stroke:#A80036;stroke-width:1.0;" x1="307" x2="307" y1="933.9063" y2="1235.7031"/><rect fill="#FFFFFF" filter="url(#f1g9cgc4bdwb92)" height="207.7969" style="stroke:#A80036;stroke-width:1.0;" width="10" x="479" y="296.9141"/><rect fill="#FFFFFF" filter="url(#f1g9cgc4bdwb92)" height="170.3984" style="stroke:#A80036;stroke-width:1.0;" width="10" x="603" y="554.9766"/><rect fill="#AFEEEE" filter="url(#f1g9cgc4bdwb92)" height="28" style="stroke:#A80036;stroke-width:1.0;" width="10" x="608" y="661.2422"/><rect fill="#FFFFFF" filter="url(#f1g9cgc4bdwb92)" height="136.2656" style="stroke:#A80036;stroke-width:1.0;" width="10" x="603" y="1085.4375"/><rect fill="#AFEEEE" filter="url(#f1g9cgc4bdwb92)" height="28" style="stroke:#A80036;stroke-width:1.0;" width="10" x="608" y="1122.5703"/><rect fill="#FFFFFF" filter="url(#f1g9cgc4bdwb92)" height="30" style="stroke:#A80036;stroke-width:1.0;" width="10" x="827" y="589.1094"/><rect fill="#FF8C00" filter="url(#f1g9cgc4bdwb92)" height="180.5313" style="stroke:#FF8C00;stroke-width:1.0;" width="10" x="827" y="725.375"/><line style="stroke:#A80036;stroke-width:1.0;" x1="827" x2="827" y1="725.375" y2="905.9063"/><line style="stroke:#A80036;stroke-width:1.0;" x1="837" x2="837" y1="725.375" y2="905.9063"/><line style="stroke:#A80036;stroke-width:1.0;" x1="827" x2="837" y1="725.375" y2="725.375"/><rect fill="#FF8C00" filter="url(#f1g9cgc4bdwb92)" height="122.3984" style="stroke:#FF8C00;stroke-width:1.0;" width="10" x="827" y="933.9063"/><line style="stroke:#A80036;stroke-width:1.0;" x1="827" x2="827" y1="933.9063" y2="1056.3047"/><line style="stroke:#A80036;stroke-width:1.0;" x1="837" x2="837" y1="933.9063" y2="1056.3047"/><line style="stroke:#A80036;stroke-width:1.0;" x1="827" x2="837" y1="1056.3047" y2="1056.3047"/><rect fill="#FFFFFF" filter="url(#f1g9cgc4bdwb92)" height="28" style="stroke:#A80036;stroke-width:1.0;" width="10" x="832" y="762.5078"/><rect fill="#6495ED" filter="url(#f1g9cgc4bdwb92)" height="71.2656" style="stroke:#6495ED;stroke-width:1.0;" width="10" x="832" y="834.6406"/><line style="stroke:#A80036;stroke-width:1.0;" x1="832" x2="832" y1="834.6406" y2="905.9063"/><line style="stroke:#A80036;stroke-width:1.0;" x1="842" x2="842" y1="834.6406" y2="905.9063"/><line style="stroke:#A80036;stroke-width:1.0;" x1="832" x2="842" y1="834.6406" y2="834.6406"/><rect fill="#6495ED" filter="url(#f1g9cgc4bdwb92)" height="21.1328" style="stroke:#6495ED;stroke-width:1.0;" width="10" x="832" y="933.9063"/><line style="stroke:#A80036;stroke-width:1.0;" x1="832" x2="832" y1="933.9063" y2="955.0391"/><line style="stroke:#A80036;stroke-width:1.0;" x1="842" x2="842" y1="933.9063" y2="955.0391"/><line style="stroke:#A80036;stroke-width:1.0;" x1="832" x2="842" y1="955.0391" y2="955.0391"/><rect fill="#FFFFFF" filter="url(#f1g9cgc4bdwb92)" height="28" style="stroke:#A80036;stroke-width:1.0;" width="10" x="832" y="992.1719"/><rect fill="#FFFFFF" filter="url(#f1g9cgc4bdwb92)" height="30" style="stroke:#A80036;stroke-width:1.0;" width="10" x="827" y="1191.7031"/><rect fill="#FFFFFF" filter="url(#f1g9cgc4bdwb92)" height="30" style="stroke:#A80036;stroke-width:1.0;" width="10" x="995" y="589.1094"/><rect fill="#6495ED" filter="url(#f1g9cgc4bdwb92)" height="37.1328" style="stroke:#6495ED;stroke-width:1.0;" width="10" x="995" y="868.7734"/><line style="stroke:#A80036;stroke-width:1.0;" x1="995" x2="995" y1="868.7734" y2="905.9063"/><line style="stroke:#A80036;stroke-width:1.0;" x1="1005" x2="1005" y1="868.7734" y2="905.9063"/><line style="stroke:#A80036;stroke-width:1.0;" x1="995" x2="1005" y1="868.7734" y2="868.7734"/><rect fill="#6495ED" filter="url(#f1g9cgc4bdwb92)" height="21.1328" style="stroke:#6495ED;stroke-width:1.0;" width="10" x="995" y="933.9063"/><line style="stroke:#A80036;stroke-width:1.0;" x1="995" x2="995" y1="933.9063" y2="955.0391"/><line style="stroke:#A80036;stroke-width:1.0;" x1="1005" x2="1005" y1="933.9063" y2="955.0391"/><line style="stroke:#A80036;stroke-width:1.0;" x1="995" x2="1005" y1="955.0391" y2="955.0391"/><rect fill="#FFFFFF" filter="url(#f1g9cgc4bdwb92)" height="30" style="stroke:#A80036;stroke-width:1.0;" width="10" x="995" y="1191.7031"/><line style="stroke:#A80036;stroke-width:1.0;" x1="29" x2="76" y1="149.3828" y2="149.3828"/><line style="stroke:#A80036;stroke-width:1.0;" x1="76" x2="76" y1="149.3828" y2="162.3828"/><line style="stroke:#A80036;stroke-width:1.0;" x1="35" x2="76" y1="162.3828" y2="162.3828"/><polygon fill="#A80036" points="45,158.3828,35,162.3828,45,166.3828,41,162.3828" style="stroke:#A80036;stroke-width:1.0;"/><text fill="#000000" font-family="sans-serif" font-size="13" lengthAdjust="spacing" textLength="167" x="41" y="144.3169">oarsub -l nodes=4 mpirun</text><line style="stroke:#A80036;stroke-width:1.0;" x1="34" x2="76" y1="196.5156" y2="196.5156"/><line style="stroke:#A80036;stroke-width:1.0;" x1="76" x2="76" y1="196.5156" y2="209.5156"/><line style="stroke:#A80036;stroke-width:1.0;" x1="35" x2="76" y1="209.5156" y2="209.5156"/><polygon fill="#A80036" points="45,205.5156,35,209.5156,45,213.5156,41,209.5156" style="stroke:#A80036;stroke-width:1.0;"/><text fill="#000000" font-family="sans-serif" font-size="13" lengthAdjust="spacing" textLength="139" x="41" y="191.4497">Apply admission rules</text><polygon fill="#A80036" points="285,234.6484,295,238.6484,285,242.6484,289,238.6484" style="stroke:#A80036;stroke-width:1.0;"/><line style="stroke:#A80036;stroke-width:1.0;" x1="34" x2="291" y1="238.6484" y2="238.6484"/><text fill="#000000" font-family="sans-serif" font-size="13" lengthAdjust="spacing" textLength="59" x="41" y="233.5825">Insert job</text><polygon fill="#A80036" points="198,263.7813,208,267.7813,198,271.7813,202,267.7813" style="stroke:#A80036;stroke-width:1.0;"/><line style="stroke:#A80036;stroke-width:1.0;" x1="29" x2="204" y1="267.7813" y2="267.7813"/><text fill="#000000" font-family="sans-serif" font-size="13" lengthAdjust="spacing" textLength="82" x="36" y="262.7153">notify "Qsub"</text><polygon fill="#A80036" points="467,292.9141,477,296.9141,467,300.9141,471,296.9141" style="stroke:#A80036;stroke-width:1.0;"/><line style="stroke:#A80036;stroke-width:1.0;" x1="220" x2="473" y1="296.9141" y2="296.9141"/><text fill="#000000" font-family="sans-serif" font-size="13" lengthAdjust="spacing" textLength="104" x="227" y="291.8481">Start scheduling</text><polygon fill="#A80036" points="318,322.0469,308,326.0469,318,330.0469,314,326.0469" style="stroke:#A80036;stroke-width:1.0;"/><line style="stroke:#A80036;stroke-width:1.0;stroke-dasharray:2.0,2.0;" x1="312" x2="478" y1="326.0469" y2="326.0469"/><text fill="#000000" font-family="sans-serif" font-size="13" lengthAdjust="spacing" textLength="62" x="324" y="320.981">fetch jobs</text><line style="stroke:#A80036;stroke-width:1.0;" x1="489" x2="531" y1="355.1797" y2="355.1797"/><line style="stroke:#A80036;stroke-width:1.0;" x1="531" x2="531" y1="355.1797" y2="368.1797"/><line style="stroke:#A80036;stroke-width:1.0;" x1="490" x2="531" y1="368.1797" y2="368.1797"/><polygon fill="#A80036" points="500,364.1797,490,368.1797,500,372.1797,496,368.1797" style="stroke:#A80036;stroke-width:1.0;"/><text fill="#000000" font-family="sans-serif" font-size="13" lengthAdjust="spacing" textLength="100" x="496" y="350.1138">Scheduling jobs</text><polygon fill="#A80036" points="318,393.3125,308,397.3125,318,401.3125,314,397.3125" style="stroke:#A80036;stroke-width:1.0;"/><line style="stroke:#A80036;stroke-width:1.0;" x1="312" x2="478" y1="397.3125" y2="397.3125"/><text fill="#000000" font-family="sans-serif" font-size="13" lengthAdjust="spacing" textLength="148" x="324" y="392.2466">insert scheduling result</text><path d="M164,412.3125 L241,412.3125 L241,419.3125 L231,429.3125 L164,429.3125 L164,412.3125 " fill="#EEEEEE" style="stroke:#000000;stroke-width:1.0;"/><rect fill="none" height="85.3984" style="stroke:#000000;stroke-width:2.0;" width="444" x="164" y="412.3125"/><text fill="#000000" font-family="sans-serif" font-size="13" font-weight="bold" lengthAdjust="spacing" textLength="32" x="179" y="425.3794">loop</text><text fill="#000000" font-family="sans-serif" font-size="11" font-weight="bold" lengthAdjust="spacing" textLength="103" x="256" y="424.5229">[i in ready_jobs]</text><polygon fill="#A80036" points="231,446.5781,221,450.5781,231,454.5781,227,450.5781" style="stroke:#A80036;stroke-width:1.0;"/><line style="stroke:#A80036;stroke-width:1.0;" x1="225" x2="478" y1="450.5781" y2="450.5781"/><text fill="#000000" font-family="sans-serif" font-size="13" lengthAdjust="spacing" textLength="67" x="237" y="445.5122">start jobs i</text><path d="M370,463.5781 L370,488.5781 L594,488.5781 L594,473.5781 L584,463.5781 L370,463.5781 " fill="#FBFB77" filter="url(#f1g9cgc4bdwb92)" style="stroke:#A80036;stroke-width:1.0;"/><path d="M584,463.5781 L584,473.5781 L594,473.5781 L584,463.5781 " fill="#FBFB77" style="stroke:#A80036;stroke-width:1.0;"/><text fill="#000000" font-family="sans-serif" font-size="13" lengthAdjust="spacing" textLength="203" x="376" y="480.645">in our case there is only one job</text><polygon fill="#A80036" points="596,521.8438,606,525.8438,596,529.8438,600,525.8438" style="stroke:#A80036;stroke-width:1.0;"/><line style="stroke:#A80036;stroke-width:1.0;stroke-dasharray:2.0,2.0;" x1="220" x2="602" y1="525.8438" y2="525.8438"/><text fill="#000000" font-family="sans-serif" font-size="13" lengthAdjust="spacing" textLength="60" x="227" y="520.7778">start job i</text><polygon fill="#A80036" points="318,550.9766,308,554.9766,318,558.9766,314,554.9766" style="stroke:#A80036;stroke-width:1.0;"/><line style="stroke:#A80036;stroke-width:1.0;" x1="312" x2="602" y1="554.9766" y2="554.9766"/><text fill="#000000" font-family="sans-serif" font-size="13" lengthAdjust="spacing" textLength="206" x="324" y="549.9106">fetch job data such as allocation</text><polygon fill="#A80036" points="815,585.1094,825,589.1094,815,593.1094,819,589.1094" style="stroke:#A80036;stroke-width:1.0;"/><line style="stroke:#A80036;stroke-width:1.0;" x1="613" x2="821" y1="589.1094" y2="589.1094"/><text fill="#000000" font-family="sans-serif" font-size="13" lengthAdjust="spacing" textLength="180" x="620" y="584.0435">job_resource_manager "init"</text><path d="M842,567.9766 L842,592.9766 L978,592.9766 L978,577.9766 L968,567.9766 L842,567.9766 " fill="#FBFB77" filter="url(#f1g9cgc4bdwb92)" style="stroke:#A80036;stroke-width:1.0;"/><path d="M968,567.9766 L968,577.9766 L978,577.9766 L968,567.9766 " fill="#FBFB77" style="stroke:#A80036;stroke-width:1.0;"/><text fill="#000000" font-family="sans-serif" font-size="13" lengthAdjust="spacing" textLength="115" x="848" y="585.0435">apply on all nodes</text><line style="stroke:#A80036;stroke-width:1.0;" x1="618" x2="660" y1="653.2422" y2="653.2422"/><line style="stroke:#A80036;stroke-width:1.0;" x1="660" x2="660" y1="653.2422" y2="666.2422"/><line style="stroke:#A80036;stroke-width:1.0;" x1="619" x2="660" y1="666.2422" y2="666.2422"/><polygon fill="#A80036" points="629,662.2422,619,666.2422,629,670.2422,625,666.2422" style="stroke:#A80036;stroke-width:1.0;"/><text fill="#000000" font-family="sans-serif" font-size="13" lengthAdjust="spacing" textLength="100" x="625" y="648.1763">server Prologue</text><polygon fill="#A80036" points="815,721.375,825,725.375,815,729.375,819,725.375" style="stroke:#A80036;stroke-width:1.0;"/><line style="stroke:#A80036;stroke-width:1.0;" x1="608" x2="821" y1="725.375" y2="725.375"/><text fill="#000000" font-family="sans-serif" font-size="13" lengthAdjust="spacing" textLength="97" x="615" y="720.3091">launch oarexec</text><line style="stroke:#A80036;stroke-width:1.0;" x1="842" x2="884" y1="754.5078" y2="754.5078"/><line style="stroke:#A80036;stroke-width:1.0;" x1="884" x2="884" y1="754.5078" y2="767.5078"/><line style="stroke:#A80036;stroke-width:1.0;" x1="843" x2="884" y1="767.5078" y2="767.5078"/><polygon fill="#A80036" points="853,763.5078,843,767.5078,853,771.5078,849,767.5078" style="stroke:#A80036;stroke-width:1.0;"/><text fill="#000000" font-family="sans-serif" font-size="13" lengthAdjust="spacing" textLength="144" x="849" y="749.4419">execute job's prologue</text><line style="stroke:#A80036;stroke-width:1.0;" x1="837" x2="884" y1="821.6406" y2="821.6406"/><line style="stroke:#A80036;stroke-width:1.0;" x1="884" x2="884" y1="821.6406" y2="834.6406"/><line style="stroke:#A80036;stroke-width:1.0;" x1="843" x2="884" y1="834.6406" y2="834.6406"/><polygon fill="#A80036" points="853,830.6406,843,834.6406,853,838.6406,849,834.6406" style="stroke:#A80036;stroke-width:1.0;"/><text fill="#000000" font-family="sans-serif" font-size="13" lengthAdjust="spacing" textLength="133" x="849" y="816.5747">Start user command</text><polygon fill="#A80036" points="983,864.7734,993,868.7734,983,872.7734,987,868.7734" style="stroke:#A80036;stroke-width:1.0;"/><line style="stroke:#A80036;stroke-width:1.0;" x1="842" x2="989" y1="868.7734" y2="868.7734"/><text fill="#000000" font-family="sans-serif" font-size="13" lengthAdjust="spacing" textLength="45" x="849" y="863.7075">mpirun</text><polygon fill="#A80036" points="853,893.9063,843,897.9063,853,901.9063,849,897.9063" style="stroke:#A80036;stroke-width:1.0;"/><polygon fill="#A80036" points="983,893.9063,993,897.9063,983,901.9063,987,897.9063" style="stroke:#A80036;stroke-width:1.0;"/><line style="stroke:#A80036;stroke-width:1.0;stroke-dasharray:2.0,2.0;" x1="847" x2="989" y1="897.9063" y2="897.9063"/><text fill="#000000" font-family="sans-serif" font-size="13" lengthAdjust="spacing" textLength="48" x="859" y="892.8403">MPI_init</text><polygon fill="#A80036" points="848,951.0391,838,955.0391,848,959.0391,844,955.0391" style="stroke:#A80036;stroke-width:1.0;"/><polygon fill="#A80036" points="988,951.0391,998,955.0391,988,959.0391,992,955.0391" style="stroke:#A80036;stroke-width:1.0;"/><line style="stroke:#A80036;stroke-width:1.0;stroke-dasharray:2.0,2.0;" x1="842" x2="994" y1="955.0391" y2="955.0391"/><text fill="#000000" font-family="sans-serif" font-size="13" lengthAdjust="spacing" textLength="73" x="854" y="949.9731">MPI_finalize</text><line style="stroke:#A80036;stroke-width:1.0;" x1="842" x2="884" y1="984.1719" y2="984.1719"/><line style="stroke:#A80036;stroke-width:1.0;" x1="884" x2="884" y1="984.1719" y2="997.1719"/><line style="stroke:#A80036;stroke-width:1.0;" x1="843" x2="884" y1="997.1719" y2="997.1719"/><polygon fill="#A80036" points="853,993.1719,843,997.1719,853,1001.1719,849,997.1719" style="stroke:#A80036;stroke-width:1.0;"/><text fill="#000000" font-family="sans-serif" font-size="13" lengthAdjust="spacing" textLength="142" x="849" y="979.106">execute job's epilogue</text><polygon fill="#A80036" points="231,1052.3047,221,1056.3047,231,1060.3047,227,1056.3047" style="stroke:#A80036;stroke-width:1.0;"/><line style="stroke:#A80036;stroke-width:1.0;" x1="225" x2="831" y1="1056.3047" y2="1056.3047"/><text fill="#000000" font-family="sans-serif" font-size="13" lengthAdjust="spacing" textLength="150" x="237" y="1051.2388">user command finished</text><polygon fill="#A80036" points="591,1081.4375,601,1085.4375,591,1089.4375,595,1085.4375" style="stroke:#A80036;stroke-width:1.0;"/><line style="stroke:#A80036;stroke-width:1.0;" x1="220" x2="597" y1="1085.4375" y2="1085.4375"/><text fill="#000000" font-family="sans-serif" font-size="13" lengthAdjust="spacing" textLength="72" x="227" y="1080.3716">job finished</text><line style="stroke:#A80036;stroke-width:1.0;" x1="618" x2="660" y1="1114.5703" y2="1114.5703"/><line style="stroke:#A80036;stroke-width:1.0;" x1="660" x2="660" y1="1114.5703" y2="1127.5703"/><line style="stroke:#A80036;stroke-width:1.0;" x1="619" x2="660" y1="1127.5703" y2="1127.5703"/><polygon fill="#A80036" points="629,1123.5703,619,1127.5703,629,1131.5703,625,1127.5703" style="stroke:#A80036;stroke-width:1.0;"/><text fill="#000000" font-family="sans-serif" font-size="13" lengthAdjust="spacing" textLength="98" x="625" y="1109.5044">server Epilogue</text><polygon fill="#A80036" points="815,1187.7031,825,1191.7031,815,1195.7031,819,1191.7031" style="stroke:#A80036;stroke-width:1.0;"/><line style="stroke:#A80036;stroke-width:1.0;" x1="613" x2="821" y1="1191.7031" y2="1191.7031"/><text fill="#000000" font-family="sans-serif" font-size="13" lengthAdjust="spacing" textLength="195" x="620" y="1186.6372">job_resource_manager "clean"</text><path d="M842,1170.5703 L842,1195.5703 L978,1195.5703 L978,1180.5703 L968,1170.5703 L842,1170.5703 " fill="#FBFB77" filter="url(#f1g9cgc4bdwb92)" style="stroke:#A80036;stroke-width:1.0;"/><path d="M968,1170.5703 L968,1180.5703 L978,1180.5703 L968,1170.5703 " fill="#FBFB77" style="stroke:#A80036;stroke-width:1.0;"/><text fill="#000000" font-family="sans-serif" font-size="13" lengthAdjust="spacing" textLength="115" x="848" y="1187.6372">apply on all nodes</text><!--MD5=[0390419b9c0b578a0b580a4310b0ce1a]
@startuml
title Job lifetime

actor User as user

box "Server" #Azure
  control Automaton as alm
  database Database as data
  control Scheduler as sch
  control Launchers as bipbip
end box
box "Nodes" #MOTIVATION
  participant "Head node" as head
  collections Nodes as nodes
end box

alm++
user++
data++

user -> user: oarsub -l nodes=4 mpirun
activate user
user -> user: Apply admission rules
user -> data: Insert job
user -> alm: notify "Qsub"
deactivate user

alm -> sch++: Start scheduling
sch - -> data: fetch jobs
sch -> sch: Scheduling jobs
sch -> data: insert scheduling result

loop i in ready_jobs
  sch -> alm: start jobs i
  note over sch: in our case there is only one job
end loop
sch- -

alm - -> bipbip: start job i
bipbip -> data : fetch job data such as allocation
bipbip++

bipbip -> head++ : job_resource_manager "init"
nodes++
note right: apply on all nodes
head- -
nodes- -

bipbip -> bipbip : server Prologue
activate bipbip #PaleTurquoise
deactivate bipbip

bipbip -> head : launch oarexec
bipbip- -
activate head #DarkOrange

head -> head++: execute job's prologue
head- -

head -> head: Start user command
activate head #CornflowerBlue
head -> nodes : mpirun
activate nodes #CornflowerBlue

head <- -> nodes : MPI_init

...

head <- -> nodes : MPI_finalize

head- -
nodes- -

head -> head++: execute job's epilogue

deactivate head

head -> alm : user command finished
head- -

alm -> bipbip++ : job finished

bipbip -> bipbip : server Epilogue
activate bipbip #PaleTurquoise
deactivate bipbip

bipbip -> head++ : job_resource_manager "clean"
nodes++
note right: apply on all nodes

head- -
nodes- -
user- -
bipbip- -

@endumlgo

PlantUML version 1.2021.3(Mon Mar 22 17:53:19 CET 2021)
(GPL source distribution)
Java Runtime: OpenJDK Runtime Environment
JVM: OpenJDK 64-Bit Server VM
Default Encoding: UTF-8
Language: en
Country: US
--></g></svg>