<?xml version="1.0" encoding="UTF-8" standalone="no"?><svg xmlns="http://www.w3.org/2000/svg" xmlns:xlink="http://www.w3.org/1999/xlink" contentScriptType="application/ecmascript" contentStyleType="text/css" height="1305px" preserveAspectRatio="none" style="width:1051px;height:1305px;" version="1.1" viewBox="0 0 1051 1305" width="1051px" zoomAndPan="magnify"><defs><filter height="300%" id="f1olzdiogbkbvo" width="300%" x="-1" y="-1"><feGaussianBlur result="blurOut" stdDeviation="2.0"/><feColorMatrix in="blurOut" result="blurOut2" type="matrix" values="0 0 0 0 0 0 0 0 0 0 0 0 0 0 0 0 0 0 .4 0"/><feOffset dx="4.0" dy="4.0" in="blurOut2" result="blurOut3"/><feBlend in="SourceGraphic" in2="blurOut3" mode="normal"/></filter></defs><g><rect fill="#F0FFFF" height="1290.0469" style="stroke: #A80036; stroke-width: 1.0;" width="481" x="173" y="4"/><text fill="#000000" font-family="sans-serif" font-size="13" font-weight="bold" lengthAdjust="spacingAndGlyphs" textLength="47" x="390" y="16.0669">Server</text><rect fill="#EFEFFF" height="1290.0469" style="stroke: #A80036; stroke-width: 1.0;" width="256.5" x="784" y="4"/><text fill="#000000" font-family="sans-serif" font-size="13" font-weight="bold" lengthAdjust="spacingAndGlyphs" textLength="47" x="888.75" y="16.0669">Nodes</text><rect fill="#FFFFFF" filter="url(#f1olzdiogbkbvo)" height="772.6563" style="stroke: #FFFFFF; stroke-width: 1.0;" width="10" x="22" y="96.2969"/><line style="stroke: #A80036; stroke-width: 1.0;" x1="22" x2="22" y1="96.2969" y2="868.9531"/><line style="stroke: #A80036; stroke-width: 1.0;" x1="32" x2="32" y1="96.2969" y2="868.9531"/><line style="stroke: #A80036; stroke-width: 1.0;" x1="22" x2="32" y1="96.2969" y2="96.2969"/><rect fill="#FFFFFF" filter="url(#f1olzdiogbkbvo)" height="287.7969" style="stroke: #FFFFFF; stroke-width: 1.0;" width="10" x="22" y="896.9531"/><line style="stroke: #A80036; stroke-width: 1.0;" x1="22" x2="22" y1="896.9531" y2="1184.75"/><line style="stroke: #A80036; stroke-width: 1.0;" x1="32" x2="32" y1="896.9531" y2="1184.75"/><line style="stroke: #A80036; stroke-width: 1.0;" x1="22" x2="32" y1="1184.75" y2="1184.75"/><rect fill="#FFFFFF" filter="url(#f1olzdiogbkbvo)" height="105.3984" style="stroke: #A80036; stroke-width: 1.0;" width="10" x="27" y="125.4297"/><rect fill="#FFFFFF" filter="url(#f1olzdiogbkbvo)" height="772.6563" style="stroke: #FFFFFF; stroke-width: 1.0;" width="10" x="213" y="96.2969"/><line style="stroke: #A80036; stroke-width: 1.0;" x1="213" x2="213" y1="96.2969" y2="868.9531"/><line style="stroke: #A80036; stroke-width: 1.0;" x1="223" x2="223" y1="96.2969" y2="868.9531"/><line style="stroke: #A80036; stroke-width: 1.0;" x1="213" x2="223" y1="96.2969" y2="96.2969"/><rect fill="#FFFFFF" filter="url(#f1olzdiogbkbvo)" height="301.7969" style="stroke: #FFFFFF; stroke-width: 1.0;" width="10" x="213" y="896.9531"/><line style="stroke: #A80036; stroke-width: 1.0;" x1="213" x2="213" y1="896.9531" y2="1198.75"/><line style="stroke: #A80036; stroke-width: 1.0;" x1="223" x2="223" y1="896.9531" y2="1198.75"/><rect fill="#FFFFFF" filter="url(#f1olzdiogbkbvo)" height="772.6563" style="stroke: #FFFFFF; stroke-width: 1.0;" width="10" x="300" y="96.2969"/><line style="stroke: #A80036; stroke-width: 1.0;" x1="300" x2="300" y1="96.2969" y2="868.9531"/><line style="stroke: #A80036; stroke-width: 1.0;" x1="310" x2="310" y1="96.2969" y2="868.9531"/><line style="stroke: #A80036; stroke-width: 1.0;" x1="300" x2="310" y1="96.2969" y2="96.2969"/><rect fill="#FFFFFF" filter="url(#f1olzdiogbkbvo)" height="301.7969" style="stroke: #FFFFFF; stroke-width: 1.0;" width="10" x="300" y="896.9531"/><line style="stroke: #A80036; stroke-width: 1.0;" x1="300" x2="300" y1="896.9531" y2="1198.75"/><line style="stroke: #A80036; stroke-width: 1.0;" x1="310" x2="310" y1="896.9531" y2="1198.75"/><rect fill="#FFFFFF" filter="url(#f1olzdiogbkbvo)" height="207.7969" style="stroke: #A80036; stroke-width: 1.0;" width="10" x="482" y="259.9609"/><rect fill="#FFFFFF" filter="url(#f1olzdiogbkbvo)" height="170.3984" style="stroke: #A80036; stroke-width: 1.0;" width="10" x="606" y="518.0234"/><rect fill="#AFEEEE" filter="url(#f1olzdiogbkbvo)" height="28" style="stroke: #A80036; stroke-width: 1.0;" width="10" x="611" y="624.2891"/><rect fill="#FFFFFF" filter="url(#f1olzdiogbkbvo)" height="136.2656" style="stroke: #A80036; stroke-width: 1.0;" width="10" x="606" y="1048.4844"/><rect fill="#AFEEEE" filter="url(#f1olzdiogbkbvo)" height="28" style="stroke: #A80036; stroke-width: 1.0;" width="10" x="611" y="1085.6172"/><rect fill="#FFFFFF" filter="url(#f1olzdiogbkbvo)" height="30" style="stroke: #A80036; stroke-width: 1.0;" width="10" x="830" y="552.1563"/><rect fill="#FF8C00" filter="url(#f1olzdiogbkbvo)" height="180.5313" style="stroke: #FF8C00; stroke-width: 1.0;" width="10" x="830" y="688.4219"/><line style="stroke: #A80036; stroke-width: 1.0;" x1="830" x2="830" y1="688.4219" y2="868.9531"/><line style="stroke: #A80036; stroke-width: 1.0;" x1="840" x2="840" y1="688.4219" y2="868.9531"/><line style="stroke: #A80036; stroke-width: 1.0;" x1="830" x2="840" y1="688.4219" y2="688.4219"/><rect fill="#FF8C00" filter="url(#f1olzdiogbkbvo)" height="122.3984" style="stroke: #FF8C00; stroke-width: 1.0;" width="10" x="830" y="896.9531"/><line style="stroke: #A80036; stroke-width: 1.0;" x1="830" x2="830" y1="896.9531" y2="1019.3516"/><line style="stroke: #A80036; stroke-width: 1.0;" x1="840" x2="840" y1="896.9531" y2="1019.3516"/><line style="stroke: #A80036; stroke-width: 1.0;" x1="830" x2="840" y1="1019.3516" y2="1019.3516"/><rect fill="#FFFFFF" filter="url(#f1olzdiogbkbvo)" height="28" style="stroke: #A80036; stroke-width: 1.0;" width="10" x="835" y="725.5547"/><rect fill="#6495ED" filter="url(#f1olzdiogbkbvo)" height="71.2656" style="stroke: #6495ED; stroke-width: 1.0;" width="10" x="835" y="797.6875"/><line style="stroke: #A80036; stroke-width: 1.0;" x1="835" x2="835" y1="797.6875" y2="868.9531"/><line style="stroke: #A80036; stroke-width: 1.0;" x1="845" x2="845" y1="797.6875" y2="868.9531"/><line style="stroke: #A80036; stroke-width: 1.0;" x1="835" x2="845" y1="797.6875" y2="797.6875"/><rect fill="#6495ED" filter="url(#f1olzdiogbkbvo)" height="21.1328" style="stroke: #6495ED; stroke-width: 1.0;" width="10" x="835" y="896.9531"/><line style="stroke: #A80036; stroke-width: 1.0;" x1="835" x2="835" y1="896.9531" y2="918.0859"/><line style="stroke: #A80036; stroke-width: 1.0;" x1="845" x2="845" y1="896.9531" y2="918.0859"/><line style="stroke: #A80036; stroke-width: 1.0;" x1="835" x2="845" y1="918.0859" y2="918.0859"/><rect fill="#FFFFFF" filter="url(#f1olzdiogbkbvo)" height="28" style="stroke: #A80036; stroke-width: 1.0;" width="10" x="835" y="955.2188"/><rect fill="#FFFFFF" filter="url(#f1olzdiogbkbvo)" height="30" style="stroke: #A80036; stroke-width: 1.0;" width="10" x="830" y="1154.75"/><rect fill="#FFFFFF" filter="url(#f1olzdiogbkbvo)" height="30" style="stroke: #A80036; stroke-width: 1.0;" width="10" x="998" y="552.1563"/><rect fill="#6495ED" filter="url(#f1olzdiogbkbvo)" height="37.1328" style="stroke: #6495ED; stroke-width: 1.0;" width="10" x="998" y="831.8203"/><line style="stroke: #A80036; stroke-width: 1.0;" x1="998" x2="998" y1="831.8203" y2="868.9531"/><line style="stroke: #A80036; stroke-width: 1.0;" x1="1008" x2="1008" y1="831.8203" y2="868.9531"/><line style="stroke: #A80036; stroke-width: 1.0;" x1="998" x2="1008" y1="831.8203" y2="831.8203"/><rect fill="#6495ED" filter="url(#f1olzdiogbkbvo)" height="21.1328" style="stroke: #6495ED; stroke-width: 1.0;" width="10" x="998" y="896.9531"/><line style="stroke: #A80036; stroke-width: 1.0;" x1="998" x2="998" y1="896.9531" y2="918.0859"/><line style="stroke: #A80036; stroke-width: 1.0;" x1="1008" x2="1008" y1="896.9531" y2="918.0859"/><line style="stroke: #A80036; stroke-width: 1.0;" x1="998" x2="1008" y1="918.0859" y2="918.0859"/><rect fill="#FFFFFF" filter="url(#f1olzdiogbkbvo)" height="30" style="stroke: #A80036; stroke-width: 1.0;" width="10" x="998" y="1154.75"/><rect fill="#FFFFFF" filter="url(#f1olzdiogbkbvo)" height="85.3984" style="stroke: #000000; stroke-width: 2.0;" width="444" x="167" y="375.3594"/><line style="stroke: #A80036; stroke-width: 1.0;" x1="27" x2="27" y1="86.2969" y2="868.9531"/><line style="stroke: #A80036; stroke-width: 1.0; stroke-dasharray: 1.0,4.0;" x1="27" x2="27" y1="868.9531" y2="896.9531"/><line style="stroke: #A80036; stroke-width: 1.0;" x1="27" x2="27" y1="896.9531" y2="1207.75"/><line style="stroke: #A80036; stroke-width: 1.0;" x1="218" x2="218" y1="86.2969" y2="868.9531"/><line style="stroke: #A80036; stroke-width: 1.0; stroke-dasharray: 1.0,4.0;" x1="218" x2="218" y1="868.9531" y2="896.9531"/><line style="stroke: #A80036; stroke-width: 1.0;" x1="218" x2="218" y1="896.9531" y2="1207.75"/><line style="stroke: #A80036; stroke-width: 1.0;" x1="305" x2="305" y1="86.2969" y2="868.9531"/><line style="stroke: #A80036; stroke-width: 1.0; stroke-dasharray: 1.0,4.0;" x1="305" x2="305" y1="868.9531" y2="896.9531"/><line style="stroke: #A80036; stroke-width: 1.0;" x1="305" x2="305" y1="896.9531" y2="1207.75"/><line style="stroke: #A80036; stroke-width: 1.0;" x1="487" x2="487" y1="86.2969" y2="868.9531"/><line style="stroke: #A80036; stroke-width: 1.0; stroke-dasharray: 1.0,4.0;" x1="487" x2="487" y1="868.9531" y2="896.9531"/><line style="stroke: #A80036; stroke-width: 1.0;" x1="487" x2="487" y1="896.9531" y2="1207.75"/><line style="stroke: #A80036; stroke-width: 1.0;" x1="611" x2="611" y1="86.2969" y2="868.9531"/><line style="stroke: #A80036; stroke-width: 1.0; stroke-dasharray: 1.0,4.0;" x1="611" x2="611" y1="868.9531" y2="896.9531"/><line style="stroke: #A80036; stroke-width: 1.0;" x1="611" x2="611" y1="896.9531" y2="1207.75"/><line style="stroke: #A80036; stroke-width: 1.0;" x1="835" x2="835" y1="86.2969" y2="868.9531"/><line style="stroke: #A80036; stroke-width: 1.0; stroke-dasharray: 1.0,4.0;" x1="835" x2="835" y1="868.9531" y2="896.9531"/><line style="stroke: #A80036; stroke-width: 1.0;" x1="835" x2="835" y1="896.9531" y2="1207.75"/><line style="stroke: #A80036; stroke-width: 1.0;" x1="1002.5" x2="1002.5" y1="86.2969" y2="868.9531"/><line style="stroke: #A80036; stroke-width: 1.0; stroke-dasharray: 1.0,4.0;" x1="1002.5" x2="1002.5" y1="868.9531" y2="896.9531"/><line style="stroke: #A80036; stroke-width: 1.0;" x1="1002.5" x2="1002.5" y1="896.9531" y2="1207.75"/><text fill="#000000" font-family="sans-serif" font-size="14" lengthAdjust="spacingAndGlyphs" textLength="32" x="8" y="82.9951">User</text><ellipse cx="27" cy="13" fill="#FEFECE" filter="url(#f1olzdiogbkbvo)" rx="8" ry="8" style="stroke: #A80036; stroke-width: 2.0;"/><path d="M27,21 L27,48 M14,29 L40,29 M27,48 L14,63 M27,48 L40,63 " fill="none" filter="url(#f1olzdiogbkbvo)" style="stroke: #A80036; stroke-width: 2.0;"/><text fill="#000000" font-family="sans-serif" font-size="14" lengthAdjust="spacingAndGlyphs" textLength="32" x="8" y="1219.7451">User</text><ellipse cx="27" cy="1233.0469" fill="#FEFECE" filter="url(#f1olzdiogbkbvo)" rx="8" ry="8" style="stroke: #A80036; stroke-width: 2.0;"/><path d="M27,1241.0469 L27,1268.0469 M14,1249.0469 L40,1249.0469 M27,1268.0469 L14,1283.0469 M27,1268.0469 L40,1283.0469 " fill="none" filter="url(#f1olzdiogbkbvo)" style="stroke: #A80036; stroke-width: 2.0;"/><text fill="#000000" font-family="sans-serif" font-size="14" lengthAdjust="spacingAndGlyphs" textLength="76" x="177" y="82.9951">Automaton</text><ellipse cx="218" cy="54" fill="#FEFECE" filter="url(#f1olzdiogbkbvo)" rx="12" ry="12" style="stroke: #A80036; stroke-width: 2.0;"/><polygon fill="#A80036" points="214,42,220,37,218,42,220,47,214,42" style="stroke: #A80036; stroke-width: 1.0;"/><text fill="#000000" font-family="sans-serif" font-size="14" lengthAdjust="spacingAndGlyphs" textLength="76" x="177" y="1219.7451">Automaton</text><ellipse cx="218" cy="1239.0469" fill="#FEFECE" filter="url(#f1olzdiogbkbvo)" rx="12" ry="12" style="stroke: #A80036; stroke-width: 2.0;"/><polygon fill="#A80036" points="214,1227.0469,220,1222.0469,218,1227.0469,220,1232.0469,214,1227.0469" style="stroke: #A80036; stroke-width: 1.0;"/><text fill="#000000" font-family="sans-serif" font-size="14" lengthAdjust="spacingAndGlyphs" textLength="66" x="269" y="82.9951">Database</text><path d="M287,34 C287,24 305,24 305,24 C305,24 323,24 323,34 L323,60 C323,70 305,70 305,70 C305,70 287,70 287,60 L287,34 " fill="#FEFECE" filter="url(#f1olzdiogbkbvo)" style="stroke: #000000; stroke-width: 1.5;"/><path d="M287,34 C287,44 305,44 305,44 C305,44 323,44 323,34 " fill="none" style="stroke: #000000; stroke-width: 1.5;"/><text fill="#000000" font-family="sans-serif" font-size="14" lengthAdjust="spacingAndGlyphs" textLength="66" x="269" y="1219.7451">Database</text><path d="M287,1233.0469 C287,1223.0469 305,1223.0469 305,1223.0469 C305,1223.0469 323,1223.0469 323,1233.0469 L323,1259.0469 C323,1269.0469 305,1269.0469 305,1269.0469 C305,1269.0469 287,1269.0469 287,1259.0469 L287,1233.0469 " fill="#FEFECE" filter="url(#f1olzdiogbkbvo)" style="stroke: #000000; stroke-width: 1.5;"/><path d="M287,1233.0469 C287,1243.0469 305,1243.0469 305,1243.0469 C305,1243.0469 323,1243.0469 323,1233.0469 " fill="none" style="stroke: #000000; stroke-width: 1.5;"/><text fill="#000000" font-family="sans-serif" font-size="14" lengthAdjust="spacingAndGlyphs" textLength="70" x="449" y="82.9951">Scheduler</text><ellipse cx="487" cy="54" fill="#FEFECE" filter="url(#f1olzdiogbkbvo)" rx="12" ry="12" style="stroke: #A80036; stroke-width: 2.0;"/><polygon fill="#A80036" points="483,42,489,37,487,42,489,47,483,42" style="stroke: #A80036; stroke-width: 1.0;"/><text fill="#000000" font-family="sans-serif" font-size="14" lengthAdjust="spacingAndGlyphs" textLength="70" x="449" y="1219.7451">Scheduler</text><ellipse cx="487" cy="1239.0469" fill="#FEFECE" filter="url(#f1olzdiogbkbvo)" rx="12" ry="12" style="stroke: #A80036; stroke-width: 2.0;"/><polygon fill="#A80036" points="483,1227.0469,489,1222.0469,487,1227.0469,489,1232.0469,483,1227.0469" style="stroke: #A80036; stroke-width: 1.0;"/><text fill="#000000" font-family="sans-serif" font-size="14" lengthAdjust="spacingAndGlyphs" textLength="72" x="572" y="82.9951">Launchers</text><ellipse cx="611" cy="54" fill="#FEFECE" filter="url(#f1olzdiogbkbvo)" rx="12" ry="12" style="stroke: #A80036; stroke-width: 2.0;"/><polygon fill="#A80036" points="607,42,613,37,611,42,613,47,607,42" style="stroke: #A80036; stroke-width: 1.0;"/><text fill="#000000" font-family="sans-serif" font-size="14" lengthAdjust="spacingAndGlyphs" textLength="72" x="572" y="1219.7451">Launchers</text><ellipse cx="611" cy="1239.0469" fill="#FEFECE" filter="url(#f1olzdiogbkbvo)" rx="12" ry="12" style="stroke: #A80036; stroke-width: 2.0;"/><polygon fill="#A80036" points="607,1227.0469,613,1222.0469,611,1227.0469,613,1232.0469,607,1227.0469" style="stroke: #A80036; stroke-width: 1.0;"/><rect fill="#FEFECE" filter="url(#f1olzdiogbkbvo)" height="30.2969" style="stroke: #A80036; stroke-width: 1.5;" width="90" x="788" y="51"/><text fill="#000000" font-family="sans-serif" font-size="14" lengthAdjust="spacingAndGlyphs" textLength="76" x="795" y="70.9951">Head node</text><rect fill="#FEFECE" filter="url(#f1olzdiogbkbvo)" height="30.2969" style="stroke: #A80036; stroke-width: 1.5;" width="90" x="788" y="1206.75"/><text fill="#000000" font-family="sans-serif" font-size="14" lengthAdjust="spacingAndGlyphs" textLength="76" x="795" y="1226.7451">Head node</text><rect fill="#FEFECE" filter="url(#f1olzdiogbkbvo)" height="30.2969" style="stroke: #A80036; stroke-width: 1.5;" width="59" x="973.5" y="47"/><rect fill="#FEFECE" filter="url(#f1olzdiogbkbvo)" height="30.2969" style="stroke: #A80036; stroke-width: 1.5;" width="59" x="969.5" y="51"/><text fill="#000000" font-family="sans-serif" font-size="14" lengthAdjust="spacingAndGlyphs" textLength="45" x="976.5" y="70.9951">Nodes</text><rect fill="#FEFECE" filter="url(#f1olzdiogbkbvo)" height="30.2969" style="stroke: #A80036; stroke-width: 1.5;" width="59" x="973.5" y="1206.75"/><rect fill="#FEFECE" filter="url(#f1olzdiogbkbvo)" height="30.2969" style="stroke: #A80036; stroke-width: 1.5;" width="59" x="969.5" y="1210.75"/><text fill="#000000" font-family="sans-serif" font-size="14" lengthAdjust="spacingAndGlyphs" textLength="45" x="976.5" y="1230.7451">Nodes</text><rect fill="#FFFFFF" filter="url(#f1olzdiogbkbvo)" height="772.6563" style="stroke: #FFFFFF; stroke-width: 1.0;" width="10" x="22" y="96.2969"/><line style="stroke: #A80036; stroke-width: 1.0;" x1="22" x2="22" y1="96.2969" y2="868.9531"/><line style="stroke: #A80036; stroke-width: 1.0;" x1="32" x2="32" y1="96.2969" y2="868.9531"/><line style="stroke: #A80036; stroke-width: 1.0;" x1="22" x2="32" y1="96.2969" y2="96.2969"/><rect fill="#FFFFFF" filter="url(#f1olzdiogbkbvo)" height="287.7969" style="stroke: #FFFFFF; stroke-width: 1.0;" width="10" x="22" y="896.9531"/><line style="stroke: #A80036; stroke-width: 1.0;" x1="22" x2="22" y1="896.9531" y2="1184.75"/><line style="stroke: #A80036; stroke-width: 1.0;" x1="32" x2="32" y1="896.9531" y2="1184.75"/><line style="stroke: #A80036; stroke-width: 1.0;" x1="22" x2="32" y1="1184.75" y2="1184.75"/><rect fill="#FFFFFF" filter="url(#f1olzdiogbkbvo)" height="105.3984" style="stroke: #A80036; stroke-width: 1.0;" width="10" x="27" y="125.4297"/><rect fill="#FFFFFF" filter="url(#f1olzdiogbkbvo)" height="772.6563" style="stroke: #FFFFFF; stroke-width: 1.0;" width="10" x="213" y="96.2969"/><line style="stroke: #A80036; stroke-width: 1.0;" x1="213" x2="213" y1="96.2969" y2="868.9531"/><line style="stroke: #A80036; stroke-width: 1.0;" x1="223" x2="223" y1="96.2969" y2="868.9531"/><line style="stroke: #A80036; stroke-width: 1.0;" x1="213" x2="223" y1="96.2969" y2="96.2969"/><rect fill="#FFFFFF" filter="url(#f1olzdiogbkbvo)" height="301.7969" style="stroke: #FFFFFF; stroke-width: 1.0;" width="10" x="213" y="896.9531"/><line style="stroke: #A80036; stroke-width: 1.0;" x1="213" x2="213" y1="896.9531" y2="1198.75"/><line style="stroke: #A80036; stroke-width: 1.0;" x1="223" x2="223" y1="896.9531" y2="1198.75"/><rect fill="#FFFFFF" filter="url(#f1olzdiogbkbvo)" height="772.6563" style="stroke: #FFFFFF; stroke-width: 1.0;" width="10" x="300" y="96.2969"/><line style="stroke: #A80036; stroke-width: 1.0;" x1="300" x2="300" y1="96.2969" y2="868.9531"/><line style="stroke: #A80036; stroke-width: 1.0;" x1="310" x2="310" y1="96.2969" y2="868.9531"/><line style="stroke: #A80036; stroke-width: 1.0;" x1="300" x2="310" y1="96.2969" y2="96.2969"/><rect fill="#FFFFFF" filter="url(#f1olzdiogbkbvo)" height="301.7969" style="stroke: #FFFFFF; stroke-width: 1.0;" width="10" x="300" y="896.9531"/><line style="stroke: #A80036; stroke-width: 1.0;" x1="300" x2="300" y1="896.9531" y2="1198.75"/><line style="stroke: #A80036; stroke-width: 1.0;" x1="310" x2="310" y1="896.9531" y2="1198.75"/><rect fill="#FFFFFF" filter="url(#f1olzdiogbkbvo)" height="207.7969" style="stroke: #A80036; stroke-width: 1.0;" width="10" x="482" y="259.9609"/><rect fill="#FFFFFF" filter="url(#f1olzdiogbkbvo)" height="170.3984" style="stroke: #A80036; stroke-width: 1.0;" width="10" x="606" y="518.0234"/><rect fill="#AFEEEE" filter="url(#f1olzdiogbkbvo)" height="28" style="stroke: #A80036; stroke-width: 1.0;" width="10" x="611" y="624.2891"/><rect fill="#FFFFFF" filter="url(#f1olzdiogbkbvo)" height="136.2656" style="stroke: #A80036; stroke-width: 1.0;" width="10" x="606" y="1048.4844"/><rect fill="#AFEEEE" filter="url(#f1olzdiogbkbvo)" height="28" style="stroke: #A80036; stroke-width: 1.0;" width="10" x="611" y="1085.6172"/><rect fill="#FFFFFF" filter="url(#f1olzdiogbkbvo)" height="30" style="stroke: #A80036; stroke-width: 1.0;" width="10" x="830" y="552.1563"/><rect fill="#FF8C00" filter="url(#f1olzdiogbkbvo)" height="180.5313" style="stroke: #FF8C00; stroke-width: 1.0;" width="10" x="830" y="688.4219"/><line style="stroke: #A80036; stroke-width: 1.0;" x1="830" x2="830" y1="688.4219" y2="868.9531"/><line style="stroke: #A80036; stroke-width: 1.0;" x1="840" x2="840" y1="688.4219" y2="868.9531"/><line style="stroke: #A80036; stroke-width: 1.0;" x1="830" x2="840" y1="688.4219" y2="688.4219"/><rect fill="#FF8C00" filter="url(#f1olzdiogbkbvo)" height="122.3984" style="stroke: #FF8C00; stroke-width: 1.0;" width="10" x="830" y="896.9531"/><line style="stroke: #A80036; stroke-width: 1.0;" x1="830" x2="830" y1="896.9531" y2="1019.3516"/><line style="stroke: #A80036; stroke-width: 1.0;" x1="840" x2="840" y1="896.9531" y2="1019.3516"/><line style="stroke: #A80036; stroke-width: 1.0;" x1="830" x2="840" y1="1019.3516" y2="1019.3516"/><rect fill="#FFFFFF" filter="url(#f1olzdiogbkbvo)" height="28" style="stroke: #A80036; stroke-width: 1.0;" width="10" x="835" y="725.5547"/><rect fill="#6495ED" filter="url(#f1olzdiogbkbvo)" height="71.2656" style="stroke: #6495ED; stroke-width: 1.0;" width="10" x="835" y="797.6875"/><line style="stroke: #A80036; stroke-width: 1.0;" x1="835" x2="835" y1="797.6875" y2="868.9531"/><line style="stroke: #A80036; stroke-width: 1.0;" x1="845" x2="845" y1="797.6875" y2="868.9531"/><line style="stroke: #A80036; stroke-width: 1.0;" x1="835" x2="845" y1="797.6875" y2="797.6875"/><rect fill="#6495ED" filter="url(#f1olzdiogbkbvo)" height="21.1328" style="stroke: #6495ED; stroke-width: 1.0;" width="10" x="835" y="896.9531"/><line style="stroke: #A80036; stroke-width: 1.0;" x1="835" x2="835" y1="896.9531" y2="918.0859"/><line style="stroke: #A80036; stroke-width: 1.0;" x1="845" x2="845" y1="896.9531" y2="918.0859"/><line style="stroke: #A80036; stroke-width: 1.0;" x1="835" x2="845" y1="918.0859" y2="918.0859"/><rect fill="#FFFFFF" filter="url(#f1olzdiogbkbvo)" height="28" style="stroke: #A80036; stroke-width: 1.0;" width="10" x="835" y="955.2188"/><rect fill="#FFFFFF" filter="url(#f1olzdiogbkbvo)" height="30" style="stroke: #A80036; stroke-width: 1.0;" width="10" x="830" y="1154.75"/><rect fill="#FFFFFF" filter="url(#f1olzdiogbkbvo)" height="30" style="stroke: #A80036; stroke-width: 1.0;" width="10" x="998" y="552.1563"/><rect fill="#6495ED" filter="url(#f1olzdiogbkbvo)" height="37.1328" style="stroke: #6495ED; stroke-width: 1.0;" width="10" x="998" y="831.8203"/><line style="stroke: #A80036; stroke-width: 1.0;" x1="998" x2="998" y1="831.8203" y2="868.9531"/><line style="stroke: #A80036; stroke-width: 1.0;" x1="1008" x2="1008" y1="831.8203" y2="868.9531"/><line style="stroke: #A80036; stroke-width: 1.0;" x1="998" x2="1008" y1="831.8203" y2="831.8203"/><rect fill="#6495ED" filter="url(#f1olzdiogbkbvo)" height="21.1328" style="stroke: #6495ED; stroke-width: 1.0;" width="10" x="998" y="896.9531"/><line style="stroke: #A80036; stroke-width: 1.0;" x1="998" x2="998" y1="896.9531" y2="918.0859"/><line style="stroke: #A80036; stroke-width: 1.0;" x1="1008" x2="1008" y1="896.9531" y2="918.0859"/><line style="stroke: #A80036; stroke-width: 1.0;" x1="998" x2="1008" y1="918.0859" y2="918.0859"/><rect fill="#FFFFFF" filter="url(#f1olzdiogbkbvo)" height="30" style="stroke: #A80036; stroke-width: 1.0;" width="10" x="998" y="1154.75"/><line style="stroke: #A80036; stroke-width: 1.0;" x1="32" x2="79" y1="112.4297" y2="112.4297"/><line style="stroke: #A80036; stroke-width: 1.0;" x1="79" x2="79" y1="112.4297" y2="125.4297"/><line style="stroke: #A80036; stroke-width: 1.0;" x1="38" x2="79" y1="125.4297" y2="125.4297"/><polygon fill="#A80036" points="48,121.4297,38,125.4297,48,129.4297,44,125.4297" style="stroke: #A80036; stroke-width: 1.0;"/><text fill="#000000" font-family="sans-serif" font-size="13" lengthAdjust="spacingAndGlyphs" textLength="167" x="44" y="107.3638">oarsub -l nodes=4 mpirun</text><line style="stroke: #A80036; stroke-width: 1.0;" x1="37" x2="79" y1="159.5625" y2="159.5625"/><line style="stroke: #A80036; stroke-width: 1.0;" x1="79" x2="79" y1="159.5625" y2="172.5625"/><line style="stroke: #A80036; stroke-width: 1.0;" x1="38" x2="79" y1="172.5625" y2="172.5625"/><polygon fill="#A80036" points="48,168.5625,38,172.5625,48,176.5625,44,172.5625" style="stroke: #A80036; stroke-width: 1.0;"/><text fill="#000000" font-family="sans-serif" font-size="13" lengthAdjust="spacingAndGlyphs" textLength="139" x="44" y="154.4966">Apply admission rules</text><polygon fill="#A80036" points="288,197.6953,298,201.6953,288,205.6953,292,201.6953" style="stroke: #A80036; stroke-width: 1.0;"/><line style="stroke: #A80036; stroke-width: 1.0;" x1="37" x2="294" y1="201.6953" y2="201.6953"/><text fill="#000000" font-family="sans-serif" font-size="13" lengthAdjust="spacingAndGlyphs" textLength="59" x="44" y="196.6294">Insert job</text><polygon fill="#A80036" points="201,226.8281,211,230.8281,201,234.8281,205,230.8281" style="stroke: #A80036; stroke-width: 1.0;"/><line style="stroke: #A80036; stroke-width: 1.0;" x1="32" x2="207" y1="230.8281" y2="230.8281"/><text fill="#000000" font-family="sans-serif" font-size="13" lengthAdjust="spacingAndGlyphs" textLength="82" x="39" y="225.7622">notify "Qsub"</text><polygon fill="#A80036" points="470,255.9609,480,259.9609,470,263.9609,474,259.9609" style="stroke: #A80036; stroke-width: 1.0;"/><line style="stroke: #A80036; stroke-width: 1.0;" x1="223" x2="476" y1="259.9609" y2="259.9609"/><text fill="#000000" font-family="sans-serif" font-size="13" lengthAdjust="spacingAndGlyphs" textLength="104" x="230" y="254.895">Start scheduling</text><polygon fill="#A80036" points="321,285.0938,311,289.0938,321,293.0938,317,289.0938" style="stroke: #A80036; stroke-width: 1.0;"/><line style="stroke: #A80036; stroke-width: 1.0; stroke-dasharray: 2.0,2.0;" x1="315" x2="481" y1="289.0938" y2="289.0938"/><text fill="#000000" font-family="sans-serif" font-size="13" lengthAdjust="spacingAndGlyphs" textLength="62" x="327" y="284.0278">fetch jobs</text><line style="stroke: #A80036; stroke-width: 1.0;" x1="492" x2="534" y1="318.2266" y2="318.2266"/><line style="stroke: #A80036; stroke-width: 1.0;" x1="534" x2="534" y1="318.2266" y2="331.2266"/><line style="stroke: #A80036; stroke-width: 1.0;" x1="493" x2="534" y1="331.2266" y2="331.2266"/><polygon fill="#A80036" points="503,327.2266,493,331.2266,503,335.2266,499,331.2266" style="stroke: #A80036; stroke-width: 1.0;"/><text fill="#000000" font-family="sans-serif" font-size="13" lengthAdjust="spacingAndGlyphs" textLength="100" x="499" y="313.1606">Scheduling jobs</text><polygon fill="#A80036" points="321,356.3594,311,360.3594,321,364.3594,317,360.3594" style="stroke: #A80036; stroke-width: 1.0;"/><line style="stroke: #A80036; stroke-width: 1.0;" x1="315" x2="481" y1="360.3594" y2="360.3594"/><text fill="#000000" font-family="sans-serif" font-size="13" lengthAdjust="spacingAndGlyphs" textLength="148" x="327" y="355.2935">insert scheduling result</text><path d="M167,375.3594 L244,375.3594 L244,382.3594 L234,392.3594 L167,392.3594 L167,375.3594 " fill="#EEEEEE" style="stroke: #000000; stroke-width: 1.0;"/><rect fill="none" height="85.3984" style="stroke: #000000; stroke-width: 2.0;" width="444" x="167" y="375.3594"/><text fill="#000000" font-family="sans-serif" font-size="13" font-weight="bold" lengthAdjust="spacingAndGlyphs" textLength="32" x="182" y="388.4263">loop</text><text fill="#000000" font-family="sans-serif" font-size="11" font-weight="bold" lengthAdjust="spacingAndGlyphs" textLength="103" x="259" y="387.5698">[i in ready_jobs]</text><polygon fill="#A80036" points="234,409.625,224,413.625,234,417.625,230,413.625" style="stroke: #A80036; stroke-width: 1.0;"/><line style="stroke: #A80036; stroke-width: 1.0;" x1="228" x2="481" y1="413.625" y2="413.625"/><text fill="#000000" font-family="sans-serif" font-size="13" lengthAdjust="spacingAndGlyphs" textLength="67" x="240" y="408.5591">start jobs i</text><path d="M373,426.625 L373,451.625 L597,451.625 L597,436.625 L587,426.625 L373,426.625 " fill="#FBFB77" filter="url(#f1olzdiogbkbvo)" style="stroke: #A80036; stroke-width: 1.0;"/><path d="M587,426.625 L587,436.625 L597,436.625 L587,426.625 " fill="#FBFB77" style="stroke: #A80036; stroke-width: 1.0;"/><text fill="#000000" font-family="sans-serif" font-size="13" lengthAdjust="spacingAndGlyphs" textLength="203" x="379" y="443.6919">in our case there is only one job</text><polygon fill="#A80036" points="599,484.8906,609,488.8906,599,492.8906,603,488.8906" style="stroke: #A80036; stroke-width: 1.0;"/><line style="stroke: #A80036; stroke-width: 1.0; stroke-dasharray: 2.0,2.0;" x1="223" x2="605" y1="488.8906" y2="488.8906"/><text fill="#000000" font-family="sans-serif" font-size="13" lengthAdjust="spacingAndGlyphs" textLength="60" x="230" y="483.8247">start job i</text><polygon fill="#A80036" points="321,514.0234,311,518.0234,321,522.0234,317,518.0234" style="stroke: #A80036; stroke-width: 1.0;"/><line style="stroke: #A80036; stroke-width: 1.0;" x1="315" x2="605" y1="518.0234" y2="518.0234"/><text fill="#000000" font-family="sans-serif" font-size="13" lengthAdjust="spacingAndGlyphs" textLength="206" x="327" y="512.9575">fetch job data such as allocation</text><polygon fill="#A80036" points="818,548.1563,828,552.1563,818,556.1563,822,552.1563" style="stroke: #A80036; stroke-width: 1.0;"/><line style="stroke: #A80036; stroke-width: 1.0;" x1="616" x2="824" y1="552.1563" y2="552.1563"/><text fill="#000000" font-family="sans-serif" font-size="13" lengthAdjust="spacingAndGlyphs" textLength="180" x="623" y="547.0903">job_resource_manager "init"</text><path d="M845,531.0234 L845,556.0234 L981,556.0234 L981,541.0234 L971,531.0234 L845,531.0234 " fill="#FBFB77" filter="url(#f1olzdiogbkbvo)" style="stroke: #A80036; stroke-width: 1.0;"/><path d="M971,531.0234 L971,541.0234 L981,541.0234 L971,531.0234 " fill="#FBFB77" style="stroke: #A80036; stroke-width: 1.0;"/><text fill="#000000" font-family="sans-serif" font-size="13" lengthAdjust="spacingAndGlyphs" textLength="115" x="851" y="548.0903">apply on all nodes</text><line style="stroke: #A80036; stroke-width: 1.0;" x1="621" x2="663" y1="616.2891" y2="616.2891"/><line style="stroke: #A80036; stroke-width: 1.0;" x1="663" x2="663" y1="616.2891" y2="629.2891"/><line style="stroke: #A80036; stroke-width: 1.0;" x1="622" x2="663" y1="629.2891" y2="629.2891"/><polygon fill="#A80036" points="632,625.2891,622,629.2891,632,633.2891,628,629.2891" style="stroke: #A80036; stroke-width: 1.0;"/><text fill="#000000" font-family="sans-serif" font-size="13" lengthAdjust="spacingAndGlyphs" textLength="100" x="628" y="611.2231">server Prologue</text><polygon fill="#A80036" points="818,684.4219,828,688.4219,818,692.4219,822,688.4219" style="stroke: #A80036; stroke-width: 1.0;"/><line style="stroke: #A80036; stroke-width: 1.0;" x1="611" x2="824" y1="688.4219" y2="688.4219"/><text fill="#000000" font-family="sans-serif" font-size="13" lengthAdjust="spacingAndGlyphs" textLength="97" x="618" y="683.356">launch oarexec</text><line style="stroke: #A80036; stroke-width: 1.0;" x1="845" x2="887" y1="717.5547" y2="717.5547"/><line style="stroke: #A80036; stroke-width: 1.0;" x1="887" x2="887" y1="717.5547" y2="730.5547"/><line style="stroke: #A80036; stroke-width: 1.0;" x1="846" x2="887" y1="730.5547" y2="730.5547"/><polygon fill="#A80036" points="856,726.5547,846,730.5547,856,734.5547,852,730.5547" style="stroke: #A80036; stroke-width: 1.0;"/><text fill="#000000" font-family="sans-serif" font-size="13" lengthAdjust="spacingAndGlyphs" textLength="144" x="852" y="712.4888">execute job's prologue</text><line style="stroke: #A80036; stroke-width: 1.0;" x1="840" x2="887" y1="784.6875" y2="784.6875"/><line style="stroke: #A80036; stroke-width: 1.0;" x1="887" x2="887" y1="784.6875" y2="797.6875"/><line style="stroke: #A80036; stroke-width: 1.0;" x1="846" x2="887" y1="797.6875" y2="797.6875"/><polygon fill="#A80036" points="856,793.6875,846,797.6875,856,801.6875,852,797.6875" style="stroke: #A80036; stroke-width: 1.0;"/><text fill="#000000" font-family="sans-serif" font-size="13" lengthAdjust="spacingAndGlyphs" textLength="133" x="852" y="779.6216">Start user command</text><polygon fill="#A80036" points="986,827.8203,996,831.8203,986,835.8203,990,831.8203" style="stroke: #A80036; stroke-width: 1.0;"/><line style="stroke: #A80036; stroke-width: 1.0;" x1="845" x2="992" y1="831.8203" y2="831.8203"/><text fill="#000000" font-family="sans-serif" font-size="13" lengthAdjust="spacingAndGlyphs" textLength="45" x="852" y="826.7544">mpirun</text><polygon fill="#A80036" points="856,856.9531,846,860.9531,856,864.9531,852,860.9531" style="stroke: #A80036; stroke-width: 1.0;"/><polygon fill="#A80036" points="986,856.9531,996,860.9531,986,864.9531,990,860.9531" style="stroke: #A80036; stroke-width: 1.0;"/><line style="stroke: #A80036; stroke-width: 1.0; stroke-dasharray: 2.0,2.0;" x1="850" x2="992" y1="860.9531" y2="860.9531"/><text fill="#000000" font-family="sans-serif" font-size="13" lengthAdjust="spacingAndGlyphs" textLength="48" x="862" y="855.8872">MPI_init</text><polygon fill="#A80036" points="851,914.0859,841,918.0859,851,922.0859,847,918.0859" style="stroke: #A80036; stroke-width: 1.0;"/><polygon fill="#A80036" points="991,914.0859,1001,918.0859,991,922.0859,995,918.0859" style="stroke: #A80036; stroke-width: 1.0;"/><line style="stroke: #A80036; stroke-width: 1.0; stroke-dasharray: 2.0,2.0;" x1="845" x2="997" y1="918.0859" y2="918.0859"/><text fill="#000000" font-family="sans-serif" font-size="13" lengthAdjust="spacingAndGlyphs" textLength="73" x="857" y="913.02">MPI_finalize</text><line style="stroke: #A80036; stroke-width: 1.0;" x1="845" x2="887" y1="947.2188" y2="947.2188"/><line style="stroke: #A80036; stroke-width: 1.0;" x1="887" x2="887" y1="947.2188" y2="960.2188"/><line style="stroke: #A80036; stroke-width: 1.0;" x1="846" x2="887" y1="960.2188" y2="960.2188"/><polygon fill="#A80036" points="856,956.2188,846,960.2188,856,964.2188,852,960.2188" style="stroke: #A80036; stroke-width: 1.0;"/><text fill="#000000" font-family="sans-serif" font-size="13" lengthAdjust="spacingAndGlyphs" textLength="142" x="852" y="942.1528">execute job's epilogue</text><polygon fill="#A80036" points="234,1015.3516,224,1019.3516,234,1023.3516,230,1019.3516" style="stroke: #A80036; stroke-width: 1.0;"/><line style="stroke: #A80036; stroke-width: 1.0;" x1="228" x2="834" y1="1019.3516" y2="1019.3516"/><text fill="#000000" font-family="sans-serif" font-size="13" lengthAdjust="spacingAndGlyphs" textLength="150" x="240" y="1014.2856">user command finished</text><polygon fill="#A80036" points="594,1044.4844,604,1048.4844,594,1052.4844,598,1048.4844" style="stroke: #A80036; stroke-width: 1.0;"/><line style="stroke: #A80036; stroke-width: 1.0;" x1="223" x2="600" y1="1048.4844" y2="1048.4844"/><text fill="#000000" font-family="sans-serif" font-size="13" lengthAdjust="spacingAndGlyphs" textLength="72" x="230" y="1043.4185">job finished</text><line style="stroke: #A80036; stroke-width: 1.0;" x1="621" x2="663" y1="1077.6172" y2="1077.6172"/><line style="stroke: #A80036; stroke-width: 1.0;" x1="663" x2="663" y1="1077.6172" y2="1090.6172"/><line style="stroke: #A80036; stroke-width: 1.0;" x1="622" x2="663" y1="1090.6172" y2="1090.6172"/><polygon fill="#A80036" points="632,1086.6172,622,1090.6172,632,1094.6172,628,1090.6172" style="stroke: #A80036; stroke-width: 1.0;"/><text fill="#000000" font-family="sans-serif" font-size="13" lengthAdjust="spacingAndGlyphs" textLength="98" x="628" y="1072.5513">server Epilogue</text><polygon fill="#A80036" points="818,1150.75,828,1154.75,818,1158.75,822,1154.75" style="stroke: #A80036; stroke-width: 1.0;"/><line style="stroke: #A80036; stroke-width: 1.0;" x1="616" x2="824" y1="1154.75" y2="1154.75"/><text fill="#000000" font-family="sans-serif" font-size="13" lengthAdjust="spacingAndGlyphs" textLength="195" x="623" y="1149.6841">job_resource_manager "clean"</text><path d="M845,1133.6172 L845,1158.6172 L981,1158.6172 L981,1143.6172 L971,1133.6172 L845,1133.6172 " fill="#FBFB77" filter="url(#f1olzdiogbkbvo)" style="stroke: #A80036; stroke-width: 1.0;"/><path d="M971,1133.6172 L971,1143.6172 L981,1143.6172 L971,1133.6172 " fill="#FBFB77" style="stroke: #A80036; stroke-width: 1.0;"/><text fill="#000000" font-family="sans-serif" font-size="13" lengthAdjust="spacingAndGlyphs" textLength="115" x="851" y="1150.6841">apply on all nodes</text><!--MD5=[5b2c999398dd436e6e60b805957e1507]
@startuml
actor User as user

box "Server" #Azure
  control Automaton as alm
  database Database as data
  control Scheduler as sch
  control Launchers as bipbip
end box
box "Nodes" #MOTIVATION
  participant "Head node" as head
  collections Nodes as nodes
end box

alm++
user++
data++

user -> user: oarsub -l nodes=4 mpirun
activate user
user -> user: Apply admission rules
user -> data: Insert job
user -> alm: notify "Qsub"
deactivate user

alm -> sch++: Start scheduling
sch - -> data: fetch jobs
sch -> sch: Scheduling jobs
sch -> data: insert scheduling result

loop i in ready_jobs
  sch -> alm: start jobs i
  note over sch: in our case there is only one job
end loop
sch- -

alm - -> bipbip: start job i
bipbip -> data : fetch job data such as allocation
bipbip++

bipbip -> head++ : job_resource_manager "init"
nodes++
note right: apply on all nodes
head- -
nodes- -

bipbip -> bipbip : server Prologue
activate bipbip #PaleTurquoise
deactivate bipbip

bipbip -> head : launch oarexec
bipbip- -
activate head #DarkOrange

head -> head++: execute job's prologue
head- -

head -> head: Start user command
activate head #CornflowerBlue
head -> nodes : mpirun
activate nodes #CornflowerBlue

head <- -> nodes : MPI_init

...

head <- -> nodes : MPI_finalize

head- -
nodes- -

head -> head++: execute job's epilogue

deactivate head

head -> alm : user command finished
head- -

alm -> bipbip++ : job finished

bipbip -> bipbip : server Epilogue
activate bipbip #PaleTurquoise
deactivate bipbip

bipbip -> head++ : job_resource_manager "clean"
nodes++
note right: apply on all nodes

head- -
nodes- -
user- -
bipbip- -

@endumlgo

PlantUML version 1.2020.16(Sun Aug 23 22:20:43 CEST 2020)
(GPL source distribution)
Java Runtime: OpenJDK Runtime Environment
JVM: OpenJDK 64-Bit Server VM
Default Encoding: UTF-8
Language: en
Country: US
--></g></svg>