<?xml version="1.0" encoding="UTF-8" standalone="no"?><svg xmlns="http://www.w3.org/2000/svg" xmlns:xlink="http://www.w3.org/1999/xlink" contentScriptType="application/ecmascript" contentStyleType="text/css" height="321px" preserveAspectRatio="none" style="width:717px;height:321px;" version="1.1" viewBox="0 0 717 321" width="717px" zoomAndPan="magnify"><defs><filter height="300%" id="f1sywofd80rgv0" width="300%" x="-1" y="-1"><feGaussianBlur result="blurOut" stdDeviation="2.0"/><feColorMatrix in="blurOut" result="blurOut2" type="matrix" values="0 0 0 0 0 0 0 0 0 0 0 0 0 0 0 0 0 0 .4 0"/><feOffset dx="4.0" dy="4.0" in="blurOut2" result="blurOut3"/><feBlend in="SourceGraphic" in2="blurOut3" mode="normal"/></filter></defs><g><rect fill="#FFFFFF" filter="url(#f1sywofd80rgv0)" height="181.6641" style="stroke:#A80036;stroke-width:1.0;" width="10" x="388" y="71.4297"/><rect fill="#FFFFFF" filter="url(#f1sywofd80rgv0)" height="132.5313" style="stroke:#000000;stroke-width:2.0;" width="391" x="312" y="86.4297"/><rect fill="#FFFFFF" filter="url(#f1sywofd80rgv0)" height="59.2656" style="stroke:#000000;stroke-width:2.0;" width="370" x="322" y="152.6953"/><line style="stroke:#A80036;stroke-width:1.0;stroke-dasharray:5.0,5.0;" x1="109" x2="109" y1="40.2969" y2="278.0938"/><line style="stroke:#A80036;stroke-width:1.0;stroke-dasharray:5.0,5.0;" x1="261" x2="261" y1="40.2969" y2="278.0938"/><line style="stroke:#A80036;stroke-width:1.0;stroke-dasharray:5.0,5.0;" x1="393" x2="393" y1="40.2969" y2="278.0938"/><rect fill="#FEFECE" filter="url(#f1sywofd80rgv0)" height="30.2969" style="stroke:#A80036;stroke-width:1.5;" width="204" x="5" y="5"/><text fill="#000000" font-family="sans-serif" font-size="14" lengthAdjust="spacing" textLength="190" x="12" y="24.9951">ExternalErnergyComponent</text><rect fill="#FEFECE" filter="url(#f1sywofd80rgv0)" height="30.2969" style="stroke:#A80036;stroke-width:1.5;" width="204" x="5" y="277.0938"/><text fill="#000000" font-family="sans-serif" font-size="14" lengthAdjust="spacing" textLength="190" x="12" y="297.0889">ExternalErnergyComponent</text><rect fill="#FEFECE" filter="url(#f1sywofd80rgv0)" height="30.2969" style="stroke:#A80036;stroke-width:1.5;" width="72" x="223" y="5"/><text fill="#000000" font-family="sans-serif" font-size="14" lengthAdjust="spacing" textLength="58" x="230" y="24.9951">Almighty</text><rect fill="#FEFECE" filter="url(#f1sywofd80rgv0)" height="30.2969" style="stroke:#A80036;stroke-width:1.5;" width="72" x="223" y="277.0938"/><text fill="#000000" font-family="sans-serif" font-size="14" lengthAdjust="spacing" textLength="58" x="230" y="297.0889">Almighty</text><rect fill="#FEFECE" filter="url(#f1sywofd80rgv0)" height="30.2969" style="stroke:#A80036;stroke-width:1.5;" width="118" x="332" y="5"/><text fill="#000000" font-family="sans-serif" font-size="14" lengthAdjust="spacing" textLength="104" x="339" y="24.9951">MetaScheduler</text><rect fill="#FEFECE" filter="url(#f1sywofd80rgv0)" height="30.2969" style="stroke:#A80036;stroke-width:1.5;" width="118" x="332" y="277.0938"/><text fill="#000000" font-family="sans-serif" font-size="14" lengthAdjust="spacing" textLength="104" x="339" y="297.0889">MetaScheduler</text><rect fill="#FFFFFF" filter="url(#f1sywofd80rgv0)" height="181.6641" style="stroke:#A80036;stroke-width:1.0;" width="10" x="388" y="71.4297"/><polygon fill="#A80036" points="376,67.4297,386,71.4297,376,75.4297,380,71.4297" style="stroke:#A80036;stroke-width:1.0;"/><line style="stroke:#A80036;stroke-width:1.0;" x1="261" x2="382" y1="71.4297" y2="71.4297"/><text fill="#000000" font-family="sans-serif" font-size="13" lengthAdjust="spacing" textLength="108" x="268" y="66.3638">meta_schedule()</text><path d="M312,86.4297 L389,86.4297 L389,93.4297 L379,103.4297 L312,103.4297 L312,86.4297 " fill="#EEEEEE" style="stroke:#000000;stroke-width:1.0;"/><rect fill="none" height="132.5313" style="stroke:#000000;stroke-width:2.0;" width="391" x="312" y="86.4297"/><text fill="#000000" font-family="sans-serif" font-size="13" font-weight="bold" lengthAdjust="spacing" textLength="32" x="327" y="99.4966">loop</text><text fill="#000000" font-family="sans-serif" font-size="11" font-weight="bold" lengthAdjust="spacing" textLength="197" x="404" y="98.6401">[queues in queues_by_priority]</text><line style="stroke:#A80036;stroke-width:1.0;" x1="398" x2="440" y1="124.6953" y2="124.6953"/><line style="stroke:#A80036;stroke-width:1.0;" x1="440" x2="440" y1="124.6953" y2="137.6953"/><line style="stroke:#A80036;stroke-width:1.0;" x1="399" x2="440" y1="137.6953" y2="137.6953"/><polygon fill="#A80036" points="409,133.6953,399,137.6953,409,141.6953,405,137.6953" style="stroke:#A80036;stroke-width:1.0;"/><text fill="#000000" font-family="sans-serif" font-size="13" lengthAdjust="spacing" textLength="286" x="405" y="119.6294">external_metasched(queue, jobs, resources)</text><path d="M322,152.6953 L399,152.6953 L399,159.6953 L389,169.6953 L322,169.6953 L322,152.6953 " fill="#EEEEEE" style="stroke:#000000;stroke-width:1.0;"/><rect fill="none" height="59.2656" style="stroke:#000000;stroke-width:2.0;" width="370" x="322" y="152.6953"/><text fill="#000000" font-family="sans-serif" font-size="13" font-weight="bold" lengthAdjust="spacing" textLength="32" x="337" y="165.7622">loop</text><text fill="#000000" font-family="sans-serif" font-size="11" font-weight="bold" lengthAdjust="spacing" textLength="109" x="414" y="164.9058">[queue in queus]</text><line style="stroke:#A80036;stroke-width:1.0;" x1="398" x2="440" y1="190.9609" y2="190.9609"/><line style="stroke:#A80036;stroke-width:1.0;" x1="440" x2="440" y1="190.9609" y2="203.9609"/><line style="stroke:#A80036;stroke-width:1.0;" x1="399" x2="440" y1="203.9609" y2="203.9609"/><polygon fill="#A80036" points="409,199.9609,399,203.9609,409,207.9609,405,203.9609" style="stroke:#A80036;stroke-width:1.0;"/><text fill="#000000" font-family="sans-serif" font-size="13" lengthAdjust="spacing" textLength="275" x="405" y="185.895">scheduler(jobs, scheduled_jobs, resources)</text><line style="stroke:#A80036;stroke-width:1.0;" x1="398" x2="440" y1="252.0938" y2="252.0938"/><line style="stroke:#A80036;stroke-width:1.0;" x1="440" x2="440" y1="252.0938" y2="265.0938"/><line style="stroke:#A80036;stroke-width:1.0;" x1="393" x2="440" y1="265.0938" y2="265.0938"/><polygon fill="#A80036" points="403,261.0938,393,265.0938,403,269.0938,399,265.0938" style="stroke:#A80036;stroke-width:1.0;"/><text fill="#000000" font-family="sans-serif" font-size="13" lengthAdjust="spacing" textLength="215" x="405" y="247.0278">get_jobs_to_launch(current_time)</text><!--MD5=[5e1490913cb79189878a5dbf045c842b]
@startuml
participant ExternalErnergyComponent as ear
participant Almighty as alm
participant MetaScheduler as kao

alm -> kao++: meta_schedule()

loop queues in queues_by_priority
  kao -> kao: external_metasched(queue, jobs, resources)
  loop queue in queus
    kao -> kao: scheduler(jobs, scheduled_jobs, resources)
  end
end

kao -> kao: get_jobs_to_launch(current_time)

kao- -

@endumlgo

PlantUML version 1.2021.3(Mon Mar 22 17:53:19 CET 2021)
(GPL source distribution)
Java Runtime: OpenJDK Runtime Environment
JVM: OpenJDK 64-Bit Server VM
Default Encoding: UTF-8
Language: en
Country: US
--></g></svg>